<?xml version="1.0" encoding="UTF-8" standalone="no"?>
<!DOCTYPE svg PUBLIC "-//W3C//DTD SVG 1.1//EN" "http://www.w3.org/Graphics/SVG/1.1/DTD/svg11.dtd">
<svg width="100%" height="100%" viewBox="0 0 75 75" version="1.1" xmlns="http://www.w3.org/2000/svg" xmlns:xlink="http://www.w3.org/1999/xlink" xml:space="preserve" xmlns:serif="http://www.serif.com/" style="fill-rule:evenodd;clip-rule:evenodd;stroke-linejoin:round;stroke-miterlimit:2;">
    <g transform="matrix(0.140242,0,0,0.140242,1.59116,1.59733)">
        <g>
            <path d="M368.808,389.651L271.589,389.651C269.932,389.651 268.589,388.308 268.589,386.651C268.589,374.903 259.032,365.345 247.285,365.345C235.545,365.345 225.994,374.903 225.994,386.651C225.994,388.308 224.651,389.651 222.994,389.651L125.775,389.651C124.118,389.651 122.775,388.308 122.775,386.651C122.775,374.903 113.226,365.345 101.488,365.345C99.831,365.345 98.488,364.002 98.488,362.345L98.488,265.126C98.488,263.469 99.831,262.126 101.488,262.126C113.226,262.126 122.775,252.568 122.775,240.82C122.775,229.091 113.226,219.549 101.488,219.549C99.831,219.549 98.488,218.206 98.488,216.549L98.488,119.329C98.488,117.672 99.831,116.329 101.488,116.329C113.226,116.329 122.775,106.772 122.775,95.024C122.775,93.367 124.118,92.024 125.775,92.024L222.994,92.024C224.651,92.024 225.994,93.367 225.994,95.024C225.994,106.772 235.545,116.329 247.285,116.329C259.033,116.329 268.589,106.772 268.589,95.024C268.589,93.367 269.932,92.024 271.589,92.024L368.808,92.024C370.465,92.024 371.808,93.367 371.808,95.024C371.808,106.772 381.367,116.329 393.115,116.329C394.772,116.329 396.115,117.672 396.115,119.329L396.115,216.549C396.115,218.206 394.772,219.549 393.115,219.549C381.367,219.549 371.808,229.091 371.808,240.82C371.808,252.568 381.367,262.126 393.115,262.126C394.772,262.126 396.115,263.469 396.115,265.126L396.115,362.345C396.115,364.002 394.772,365.345 393.115,365.345C381.367,365.345 371.808,374.903 371.808,386.651C371.808,388.309 370.465,389.651 368.808,389.651ZM274.425,383.651L365.972,383.651C367.362,370.986 377.45,360.899 390.115,359.509L390.115,267.962C376.465,266.464 365.808,254.863 365.808,240.82C365.808,226.795 376.464,215.209 390.115,213.712L390.115,122.165C377.45,120.775 367.362,110.688 365.972,98.024L274.425,98.024C272.927,111.674 261.327,122.329 247.285,122.329C233.25,122.329 221.655,111.674 220.158,98.024L128.612,98.024C127.223,110.688 117.144,120.774 104.488,122.165L104.488,213.712C118.128,215.21 128.775,226.795 128.775,240.82C128.775,254.862 118.128,266.463 104.488,267.962L104.488,359.509C117.143,360.901 127.222,370.987 128.612,383.651L220.158,383.651C221.656,370.001 233.25,359.345 247.285,359.345C261.327,359.346 272.927,370.001 274.425,383.651ZM247.285,268.127C232.237,268.127 219.994,255.878 219.994,240.821C219.994,225.783 232.237,213.55 247.285,213.55C262.34,213.55 274.589,225.784 274.589,240.821C274.589,255.878 262.34,268.127 247.285,268.127ZM247.285,219.55C235.545,219.55 225.994,229.092 225.994,240.821C225.994,252.569 235.545,262.127 247.285,262.127C259.033,262.127 268.589,252.569 268.589,240.821C268.589,229.092 259.032,219.55 247.285,219.55Z" style="fill-rule:nonzero;"/>
        </g>
        <g>
            <path d="M247.05,268.006C232.414,268.006 220.05,255.642 220.05,241.006C220.05,225.866 231.91,214.006 247.05,214.006C263.012,214.006 275.05,225.613 275.05,241.006C275.05,255.894 262.489,268.006 247.05,268.006ZM247.05,220.006C235.274,220.006 226.05,229.23 226.05,241.006C226.05,252.389 235.667,262.006 247.05,262.006C259.18,262.006 269.05,252.586 269.05,241.006C269.05,229.034 259.592,220.006 247.05,220.006Z" style="fill-rule:nonzero;"/>
        </g>
        <g>
            <path d="M393.05,122.006C378.414,122.006 366.05,109.642 366.05,95.006C366.05,80.37 378.414,68.006 393.05,68.006C407.686,68.006 420.05,80.37 420.05,95.006C420.05,109.642 407.686,122.006 393.05,122.006ZM393.05,74.006C381.667,74.006 372.05,83.623 372.05,95.006C372.05,106.389 381.667,116.006 393.05,116.006C404.433,116.006 414.05,106.389 414.05,95.006C414.05,83.623 404.433,74.006 393.05,74.006Z" style="fill-rule:nonzero;"/>
        </g>
        <g>
            <path d="M101.05,122.006C86.414,122.006 74.05,109.642 74.05,95.006C74.05,80.37 86.414,68.006 101.05,68.006C116.489,68.006 129.05,80.118 129.05,95.006C129.05,109.894 116.49,122.006 101.05,122.006ZM101.05,74.006C89.667,74.006 80.05,83.623 80.05,95.006C80.05,106.389 89.667,116.006 101.05,116.006C113.181,116.006 123.05,106.586 123.05,95.006C123.05,83.426 113.181,74.006 101.05,74.006Z" style="fill-rule:nonzero;"/>
        </g>
        <g>
            <path d="M101.05,414.006C86.414,414.006 74.05,401.642 74.05,387.006C74.05,371.567 86.162,359.006 101.05,359.006C116.751,359.006 129.05,371.305 129.05,387.006C129.05,401.894 116.49,414.006 101.05,414.006ZM101.05,365.006C89.47,365.006 80.05,374.875 80.05,387.006C80.05,398.389 89.667,408.006 101.05,408.006C113.181,408.006 123.05,398.585 123.05,387.006C123.05,374.669 113.387,365.006 101.05,365.006Z" style="fill-rule:nonzero;"/>
        </g>
        <g>
            <path d="M393.05,414.006C378.414,414.006 366.05,401.642 366.05,387.006C366.05,371.567 378.162,359.006 393.05,359.006C407.938,359.006 420.05,371.567 420.05,387.006C420.05,401.642 407.686,414.006 393.05,414.006ZM393.05,365.006C381.471,365.006 372.05,374.875 372.05,387.006C372.05,398.389 381.667,408.006 393.05,408.006C404.433,408.006 414.05,398.389 414.05,387.006C414.05,374.875 404.629,365.006 393.05,365.006Z" style="fill-rule:nonzero;"/>
        </g>
        <g>
            <path d="M393.05,268.006C378.414,268.006 366.05,255.642 366.05,241.006C366.05,225.866 377.909,214.006 393.05,214.006C408.191,214.006 420.05,225.866 420.05,241.006C420.05,255.642 407.686,268.006 393.05,268.006ZM393.05,220.006C381.275,220.006 372.05,229.23 372.05,241.006C372.05,252.389 381.667,262.006 393.05,262.006C404.433,262.006 414.05,252.389 414.05,241.006C414.05,229.23 404.825,220.006 393.05,220.006Z" style="fill-rule:nonzero;"/>
        </g>
        <g>
            <path d="M101.05,268.006C86.414,268.006 74.05,255.642 74.05,241.006C74.05,225.866 85.91,214.006 101.05,214.006C117.012,214.006 129.05,225.613 129.05,241.006C129.05,255.894 116.49,268.006 101.05,268.006ZM101.05,220.006C89.274,220.006 80.05,229.23 80.05,241.006C80.05,252.389 89.667,262.006 101.05,262.006C113.181,262.006 123.05,252.586 123.05,241.006C123.05,229.034 113.592,220.006 101.05,220.006Z" style="fill-rule:nonzero;"/>
        </g>
        <g>
            <path d="M247.05,122.006C232.414,122.006 220.05,109.642 220.05,95.006C220.05,80.37 232.414,68.006 247.05,68.006C262.489,68.006 275.05,80.118 275.05,95.006C275.05,109.894 262.489,122.006 247.05,122.006ZM247.05,74.006C235.667,74.006 226.05,83.623 226.05,95.006C226.05,106.389 235.667,116.006 247.05,116.006C259.18,116.006 269.05,106.586 269.05,95.006C269.05,83.426 259.181,74.006 247.05,74.006Z" style="fill-rule:nonzero;"/>
        </g>
        <g>
            <path d="M247.05,414.006C232.414,414.006 220.05,401.642 220.05,387.006C220.05,371.567 232.162,359.006 247.05,359.006C262.751,359.006 275.05,371.305 275.05,387.006C275.05,401.894 262.489,414.006 247.05,414.006ZM247.05,365.006C235.47,365.006 226.05,374.875 226.05,387.006C226.05,398.389 235.667,408.006 247.05,408.006C259.18,408.006 269.05,398.585 269.05,387.006C269.05,374.669 259.387,365.006 247.05,365.006Z" style="fill-rule:nonzero;"/>
        </g>
        <g>
            <path d="M230.119,226.658C229.351,226.658 228.583,226.365 227.997,225.779L181.028,178.806C179.857,177.635 179.857,175.735 181.028,174.563C182.199,173.392 184.099,173.392 185.271,174.563L232.24,221.536C233.411,222.707 233.411,224.607 232.24,225.779C231.654,226.365 230.886,226.658 230.119,226.658ZM156.175,152.693C155.407,152.693 154.639,152.4 154.054,151.815L116.548,114.311C115.376,113.139 115.376,111.24 116.548,110.068C117.72,108.896 119.62,108.897 120.791,110.068L158.297,147.572C159.469,148.744 159.469,150.643 158.297,151.815C157.711,152.4 156.943,152.693 156.175,152.693Z" style="fill-rule:nonzero;"/>
        </g>
        <g>
            <path d="M264.479,226.658C263.711,226.658 262.944,226.365 262.358,225.779C261.186,224.608 261.186,222.708 262.358,221.537L309.331,174.564C310.503,173.392 312.401,173.392 313.573,174.564C314.745,175.735 314.745,177.635 313.573,178.806L266.6,225.779C266.015,226.365 265.247,226.658 264.479,226.658ZM338.413,152.693C337.645,152.693 336.877,152.4 336.291,151.814C335.12,150.642 335.12,148.743 336.292,147.571L373.812,110.067C374.984,108.896 376.883,108.896 378.055,110.067C379.226,111.239 379.226,113.138 378.054,114.31L340.534,151.814C339.948,152.4 339.181,152.693 338.413,152.693Z" style="fill-rule:nonzero;"/>
        </g>
        <g>
            <path d="M118.669,372.127C117.901,372.127 117.133,371.834 116.547,371.248C115.376,370.076 115.376,368.177 116.547,367.005L154.723,328.843C155.895,327.673 157.794,327.672 158.966,328.844C160.138,330.016 160.137,331.915 158.966,333.087L120.79,371.249C120.205,371.834 119.437,372.127 118.669,372.127ZM183.851,306.941C183.083,306.941 182.315,306.648 181.729,306.062C180.558,304.89 180.558,302.991 181.729,301.819L227.997,255.569C229.169,254.398 231.068,254.398 232.24,255.569C233.412,256.74 233.411,258.64 232.24,259.812L185.972,306.062C185.386,306.648 184.619,306.941 183.851,306.941Z" style="fill-rule:nonzero;"/>
        </g>
        <g>
            <path d="M375.933,372.127C375.165,372.127 374.398,371.834 373.812,371.248L332.41,329.844C331.238,328.672 331.238,326.773 332.41,325.602C333.582,324.43 335.48,324.43 336.652,325.602L378.054,367.006C379.226,368.178 379.226,370.077 378.054,371.248C377.468,371.834 376.7,372.127 375.933,372.127ZM307.62,303.798C306.852,303.798 306.085,303.505 305.5,302.92L262.359,259.814C261.186,258.643 261.186,256.744 262.357,255.571C263.528,254.399 265.428,254.398 266.599,255.57L309.74,298.676C310.913,299.847 310.913,301.746 309.742,302.918C309.156,303.505 308.389,303.798 307.62,303.798Z" style="fill-rule:nonzero;"/>
        </g>
        <g>
            <path d="M223.05,244.006L126.05,244.006C124.393,244.006 123.05,242.663 123.05,241.006C123.05,239.349 124.393,238.006 126.05,238.006L223.05,238.006C224.707,238.006 226.05,239.349 226.05,241.006C226.05,242.663 224.707,244.006 223.05,244.006Z" style="fill-rule:nonzero;"/>
        </g>
        <g>
            <path d="M247.05,220.006C245.393,220.006 244.05,218.663 244.05,217.006L244.05,119.006C244.05,117.349 245.393,116.006 247.05,116.006C248.707,116.006 250.05,117.349 250.05,119.006L250.05,217.006C250.05,218.663 248.707,220.006 247.05,220.006Z" style="fill-rule:nonzero;"/>
        </g>
        <g>
            <path d="M369.05,244.006L272.05,244.006C270.393,244.006 269.05,242.663 269.05,241.006C269.05,239.349 270.393,238.006 272.05,238.006L369.05,238.006C370.707,238.006 372.05,239.349 372.05,241.006C372.05,242.663 370.707,244.006 369.05,244.006Z" style="fill-rule:nonzero;"/>
        </g>
        <g>
            <path d="M247.05,365.006C245.393,365.006 244.05,363.663 244.05,362.006L244.05,265.006C244.05,263.349 245.393,262.006 247.05,262.006C248.707,262.006 250.05,263.349 250.05,265.006L250.05,362.006C250.05,363.663 248.707,365.006 247.05,365.006Z" style="fill-rule:nonzero;"/>
        </g>
        <g>
            <path d="M326.05,186.006C313.302,186.006 304.05,176.754 304.05,164.006C304.05,151.258 313.302,142.006 326.05,142.006C338.181,142.006 348.05,151.875 348.05,164.006C348.05,176.137 338.181,186.006 326.05,186.006ZM326.05,148.006C316.779,148.006 310.05,154.735 310.05,164.006C310.05,173.277 316.779,180.006 326.05,180.006C334.872,180.006 342.05,172.828 342.05,164.006C342.05,155.184 334.872,148.006 326.05,148.006Z" style="fill-rule:nonzero;"/>
        </g>
        <g>
            <path d="M169.05,186.006C156.302,186.006 147.05,176.754 147.05,164.006C147.05,151.258 156.302,142.006 169.05,142.006C181.181,142.006 191.05,151.875 191.05,164.006C191.05,176.137 181.181,186.006 169.05,186.006ZM169.05,148.006C159.779,148.006 153.05,154.735 153.05,164.006C153.05,173.277 159.779,180.006 169.05,180.006C177.872,180.006 185.05,172.828 185.05,164.006C185.05,155.184 177.873,148.006 169.05,148.006Z" style="fill-rule:nonzero;"/>
        </g>
        <g>
            <path d="M170.05,340.006C158.33,340.006 148.05,329.726 148.05,318.006C148.05,305.538 158.125,295.006 170.05,295.006C182.732,295.006 193.05,305.323 193.05,318.006C193.05,329.931 182.518,340.006 170.05,340.006ZM170.05,301.006C161.527,301.006 154.05,308.95 154.05,318.006C154.05,326.38 161.676,334.006 170.05,334.006C179.106,334.006 187.05,326.529 187.05,318.006C187.05,308.632 179.424,301.006 170.05,301.006Z" style="fill-rule:nonzero;"/>
        </g>
        <g>
            <path d="M320.05,338.006C307.713,338.006 298.05,327.903 298.05,315.006C298.05,302.875 307.919,293.006 320.05,293.006C331.77,293.006 342.05,303.286 342.05,315.006C342.05,327.474 331.975,338.006 320.05,338.006ZM320.05,299.006C311.228,299.006 304.05,306.184 304.05,315.006C304.05,324.697 310.929,332.006 320.05,332.006C328.573,332.006 336.05,324.062 336.05,315.006C336.05,306.632 328.424,299.006 320.05,299.006Z" style="fill-rule:nonzero;"/>
        </g>
        <g>
            <path d="M442.05,282.006C440.393,282.006 439.05,280.663 439.05,279.006L439.05,274.006C439.05,272.349 440.393,271.006 442.05,271.006C443.707,271.006 445.05,272.349 445.05,274.006L445.05,279.006C445.05,280.663 443.707,282.006 442.05,282.006ZM442.05,259.007C440.393,259.007 439.05,257.663 439.05,256.007L439.05,251.007C439.05,249.35 440.393,248.007 442.05,248.007C443.707,248.007 445.05,249.35 445.05,251.007L445.05,256.007C445.05,257.663 443.707,259.007 442.05,259.007ZM442.05,236.006C440.393,236.006 439.05,234.663 439.05,233.006L439.05,228.006C439.05,226.349 440.393,225.006 442.05,225.006C443.707,225.006 445.05,226.349 445.05,228.006L445.05,233.006C445.05,234.663 443.707,236.006 442.05,236.006ZM442.05,213.006C440.393,213.006 439.05,211.663 439.05,210.006L439.05,205.006C439.05,203.349 440.393,202.006 442.05,202.006C443.707,202.006 445.05,203.349 445.05,205.006L445.05,210.006C445.05,211.663 443.707,213.006 442.05,213.006ZM442.05,190.006C440.393,190.006 439.05,188.663 439.05,187.006L439.05,182.006C439.05,180.349 440.393,179.006 442.05,179.006C443.707,179.006 445.05,180.349 445.05,182.006L445.05,187.006C445.05,188.663 443.707,190.006 442.05,190.006ZM442.05,167.006C440.393,167.006 439.05,165.663 439.05,164.006L439.05,159.006C439.05,157.349 440.393,156.006 442.05,156.006C443.707,156.006 445.05,157.349 445.05,159.006L445.05,164.006C445.05,165.663 443.707,167.006 442.05,167.006ZM442.05,144.006C440.393,144.006 439.05,142.663 439.05,141.006L439.05,136.006C439.05,134.349 440.393,133.006 442.05,133.006C443.707,133.006 445.05,134.349 445.05,136.006L445.05,141.006C445.05,142.663 443.707,144.006 442.05,144.006ZM442.05,121.006C440.393,121.006 439.05,119.663 439.05,118.006L439.05,113.006C439.05,111.349 440.393,110.006 442.05,110.006C443.707,110.006 445.05,111.349 445.05,113.006L445.05,118.006C445.05,119.663 443.707,121.006 442.05,121.006ZM442.05,98.006C440.393,98.006 439.05,96.663 439.05,95.006L439.05,90.006C439.05,88.349 440.393,87.006 442.05,87.006C443.707,87.006 445.05,88.349 445.05,90.006L445.05,95.006C445.05,96.663 443.707,98.006 442.05,98.006ZM442.05,75.006C440.393,75.006 439.05,73.663 439.05,72.006L439.05,67.006C439.05,65.349 440.393,64.006 442.05,64.006C443.707,64.006 445.05,65.349 445.05,67.006L445.05,72.006C445.05,73.663 443.707,75.006 442.05,75.006ZM442.05,52.006C440.743,52.006 439.632,51.171 439.221,50.006L439.051,50.006C437.394,50.006 436.051,48.663 436.051,47.006C436.051,45.349 437.394,44.006 439.051,44.006L442.05,44.006C443.707,44.006 445.05,45.349 445.05,47.006L445.05,49.006C445.05,50.663 443.707,52.006 442.05,52.006ZM421.051,50.006L416.051,50.006C414.394,50.006 413.051,48.663 413.051,47.006C413.051,45.349 414.394,44.006 416.051,44.006L421.051,44.006C422.708,44.006 424.051,45.349 424.051,47.006C424.051,48.663 422.708,50.006 421.051,50.006ZM398.051,50.006L393.05,50.006C391.393,50.006 390.05,48.663 390.05,47.006C390.05,45.349 391.393,44.006 393.05,44.006L398.051,44.006C399.708,44.006 401.051,45.349 401.051,47.006C401.051,48.663 399.708,50.006 398.051,50.006ZM375.05,50.006L370.05,50.006C368.393,50.006 367.05,48.663 367.05,47.006C367.05,45.349 368.393,44.006 370.05,44.006L375.05,44.006C376.707,44.006 378.05,45.349 378.05,47.006C378.05,48.663 376.707,50.006 375.05,50.006ZM352.05,50.006L347.05,50.006C345.393,50.006 344.05,48.663 344.05,47.006C344.05,45.349 345.393,44.006 347.05,44.006L352.05,44.006C353.707,44.006 355.05,45.349 355.05,47.006C355.05,48.663 353.707,50.006 352.05,50.006ZM329.051,50.006L324.05,50.006C322.393,50.006 321.05,48.663 321.05,47.006C321.05,45.349 322.393,44.006 324.05,44.006L329.051,44.006C330.708,44.006 332.051,45.349 332.051,47.006C332.051,48.663 330.708,50.006 329.051,50.006ZM306.051,50.006L301.051,50.006C299.394,50.006 298.051,48.663 298.051,47.006C298.051,45.349 299.394,44.006 301.051,44.006L306.051,44.006C307.708,44.006 309.051,45.349 309.051,47.006C309.051,48.663 307.708,50.006 306.051,50.006ZM283.051,50.006L278.051,50.006C276.394,50.006 275.051,48.663 275.051,47.006C275.051,45.349 276.394,44.006 278.051,44.006L283.051,44.006C284.708,44.006 286.051,45.349 286.051,47.006C286.051,48.663 284.708,50.006 283.051,50.006ZM260.05,50.006L255.05,50.006C253.393,50.006 252.05,48.663 252.05,47.006C252.05,45.349 253.393,44.006 255.05,44.006L260.05,44.006C261.707,44.006 263.05,45.349 263.05,47.006C263.05,48.663 261.707,50.006 260.05,50.006ZM237.05,50.006L232.05,50.006C230.393,50.006 229.05,48.663 229.05,47.006C229.05,45.349 230.393,44.006 232.05,44.006L237.05,44.006C238.707,44.006 240.05,45.349 240.05,47.006C240.05,48.663 238.707,50.006 237.05,50.006ZM214.05,50.006L209.05,50.006C207.393,50.006 206.05,48.663 206.05,47.006C206.05,45.349 207.393,44.006 209.05,44.006L214.05,44.006C215.707,44.006 217.05,45.349 217.05,47.006C217.05,48.663 215.707,50.006 214.05,50.006ZM191.05,50.006L186.05,50.006C184.393,50.006 183.05,48.663 183.05,47.006C183.05,45.349 184.393,44.006 186.05,44.006L191.05,44.006C192.707,44.006 194.05,45.349 194.05,47.006C194.05,48.663 192.707,50.006 191.05,50.006ZM168.05,50.006L163.05,50.006C161.393,50.006 160.05,48.663 160.05,47.006C160.05,45.349 161.393,44.006 163.05,44.006L168.05,44.006C169.707,44.006 171.05,45.349 171.05,47.006C171.05,48.663 169.707,50.006 168.05,50.006ZM145.05,50.006L140.05,50.006C138.393,50.006 137.05,48.663 137.05,47.006C137.05,45.349 138.393,44.006 140.05,44.006L145.05,44.006C146.707,44.006 148.05,45.349 148.05,47.006C148.05,48.663 146.707,50.006 145.05,50.006Z" style="fill-rule:nonzero;"/>
        </g>
        <g>
            <path d="M350.05,449.006L38.05,449.006C36.393,449.006 35.05,447.663 35.05,446.006C35.05,444.349 36.393,443.006 38.05,443.006L350.05,443.006C351.707,443.006 353.05,444.349 353.05,446.006C353.05,447.663 351.707,449.006 350.05,449.006Z" style="fill-rule:nonzero;"/>
        </g>
        <g>
            <path d="M437.05,468.006L221.05,468.006C219.393,468.006 218.05,466.663 218.05,465.006C218.05,463.349 219.393,462.006 221.05,462.006L437.05,462.006C438.707,462.006 440.05,463.349 440.05,465.006C440.05,466.663 438.707,468.006 437.05,468.006Z" style="fill-rule:nonzero;"/>
        </g>
        <g>
            <path d="M486.05,468.006L459.05,468.006C457.393,468.006 456.05,466.663 456.05,465.006C456.05,463.349 457.393,462.006 459.05,462.006L486.05,462.006C487.707,462.006 489.05,463.349 489.05,465.006C489.05,466.663 487.707,468.006 486.05,468.006Z" style="fill-rule:nonzero;"/>
        </g>
        <g>
            <path d="M128.05,467.006L26.05,467.006C24.393,467.006 23.05,465.663 23.05,464.006C23.05,462.349 24.393,461.006 26.05,461.006L128.05,461.006C129.707,461.006 131.05,462.349 131.05,464.006C131.05,465.663 129.707,467.006 128.05,467.006Z" style="fill-rule:nonzero;"/>
        </g>
    </g>
</svg>
