<?xml version="1.0" encoding="UTF-8" standalone="no"?>
<!DOCTYPE svg PUBLIC "-//W3C//DTD SVG 1.1//EN" "http://www.w3.org/Graphics/SVG/1.1/DTD/svg11.dtd">
<svg width="100%" height="100%" viewBox="0 0 105 105" version="1.1" xmlns="http://www.w3.org/2000/svg" xmlns:xlink="http://www.w3.org/1999/xlink" xml:space="preserve" xmlns:serif="http://www.serif.com/" style="fill-rule:evenodd;clip-rule:evenodd;stroke-linejoin:round;stroke-miterlimit:2;">
    <g transform="matrix(1,0,0,1,-17172.2,-4864.02)">
        <g transform="matrix(1,0,0,1,2872.58,3712.46)">
            <g id="noun_binocular_3211272.svg" transform="matrix(1.49972,0,0,1.49972,14352.1,1204.05)">
                <g transform="matrix(1,0,0,1,-35,-35)">
                    <g transform="matrix(1,0,0,1,0,0.00119232)">
                        <path d="M52.776,35.101C46.977,35.101 42.259,39.818 42.259,45.618C42.259,51.418 46.977,56.136 52.776,56.136C58.576,56.136 63.294,51.418 63.294,45.618C63.294,39.818 58.576,35.101 52.776,35.101ZM52.776,54.136C48.08,54.136 44.259,50.314 44.259,45.618C44.259,40.922 48.08,37.101 52.776,37.101C57.473,37.101 61.294,40.922 61.294,45.618C61.294,50.314 57.473,54.136 52.776,54.136Z" style="fill-rule:nonzero;"/>
                    </g>
                    <g transform="matrix(1,0,0,1,0,0.00119232)">
                        <path d="M17.224,35.101C11.424,35.101 6.706,39.818 6.706,45.618C6.706,51.418 11.424,56.136 17.224,56.136C23.023,56.136 27.741,51.418 27.741,45.618C27.741,39.818 23.023,35.101 17.224,35.101ZM17.224,54.136C12.527,54.136 8.706,50.314 8.706,45.618C8.706,40.922 12.527,37.101 17.224,37.101C21.92,37.101 25.741,40.922 25.741,45.618C25.741,50.314 21.92,54.136 17.224,54.136Z" style="fill-rule:nonzero;"/>
                    </g>
                    <g transform="matrix(1,0,0,1,0,0.00119232)">
                        <path d="M66.889,39.912L59.966,22.836C59.943,22.781 59.916,22.729 59.885,22.679C59.819,22.575 58.595,20.696 55.659,19.465L52.622,11.84C52.381,11.232 51.931,10.725 51.355,10.408C49.845,9.575 44.672,7.257 41.59,12.366C41.339,12.782 41.206,13.276 41.206,13.793L41.206,21.649C39.971,22.723 39.011,24.002 38.344,25.478C36.99,24.852 34.594,24.234 31.679,25.535C31.011,24.036 30.044,22.737 28.794,21.649L28.794,13.793C28.794,13.276 28.661,12.782 28.41,12.365C25.329,7.258 20.155,9.576 18.646,10.408C18.069,10.725 17.619,11.232 17.379,11.839L14.341,19.465C11.405,20.696 10.181,22.575 10.115,22.679C10.084,22.729 10.057,22.781 10.034,22.836L3.111,39.912C3.105,39.927 3.108,39.943 3.103,39.959C2.398,41.711 2,43.617 2,45.618C2,54.012 8.829,60.841 17.224,60.841C25.617,60.841 32.446,54.012 32.446,45.618C32.446,45.487 32.43,45.361 32.427,45.231C32.427,45.212 32.437,45.196 32.437,45.177L32.301,38.153C34.791,36.969 36.76,37.615 37.7,38.094L37.563,45.177C37.563,45.196 37.573,45.212 37.573,45.231C37.57,45.361 37.554,45.487 37.554,45.618C37.554,54.012 44.383,60.841 52.776,60.841C61.171,60.841 68,54.012 68,45.618C68,43.617 67.602,41.71 66.897,39.959C66.892,39.943 66.895,39.927 66.889,39.912ZM43.303,13.398C45.329,10.04 48.612,11.181 50.392,12.16C50.563,12.255 50.692,12.399 50.764,12.579L53.21,18.72C52.938,18.665 52.661,18.613 52.369,18.571C49.1,18.107 45.862,18.699 43.206,20.232L43.206,13.793C43.206,13.642 43.24,13.502 43.303,13.398ZM44.042,22.051C46.34,20.673 49.195,20.14 52.086,20.552C56.146,21.131 57.868,23.291 58.152,23.687L62.208,33.691C59.612,31.633 56.339,30.395 52.776,30.395C47.356,30.395 42.601,33.251 39.903,37.53C39.881,37.375 39.813,37.233 39.72,37.103L39.917,26.906C40.676,24.87 42.063,23.237 44.042,22.051ZM19.237,12.578C19.308,12.399 19.437,12.255 19.609,12.16C21.388,11.181 24.671,10.041 26.697,13.397C26.76,13.502 26.794,13.642 26.794,13.793L26.794,20.232C24.137,18.7 20.898,18.11 17.631,18.571C17.34,18.613 17.062,18.665 16.79,18.72L19.237,12.578ZM11.847,23.688C12.143,23.278 13.866,21.129 17.914,20.552C20.799,20.142 23.659,20.673 25.958,22.051C27.937,23.237 29.324,24.87 30.083,26.906L30.279,37.077C30.177,37.214 30.127,37.376 30.104,37.542C27.408,33.257 22.649,30.395 17.224,30.395C13.661,30.395 10.388,31.633 7.792,33.691L11.847,23.688ZM17.224,58.841C9.932,58.841 4,52.909 4,45.618C4,43.8 4.37,42.066 5.036,40.487L5.044,40.47C7.055,35.728 11.757,32.395 17.224,32.395C24.515,32.395 30.446,38.326 30.446,45.618C30.446,52.909 24.515,58.841 17.224,58.841ZM32.26,36.005L32.096,27.553C34.885,26.13 37.051,27.008 37.905,27.495L37.742,35.942C36.444,35.469 34.531,35.165 32.26,36.005ZM52.776,58.841C45.485,58.841 39.554,52.909 39.554,45.618C39.554,38.326 45.485,32.395 52.776,32.395C58.243,32.395 62.945,35.728 64.956,40.47L64.964,40.487C65.63,42.066 66,43.8 66,45.618C66,52.909 60.068,58.841 52.776,58.841Z" style="fill-rule:nonzero;"/>
                    </g>
                </g>
            </g>
        </g>
    </g>
</svg>
