<?xml version="1.0" encoding="UTF-8" standalone="no"?>
<!DOCTYPE svg PUBLIC "-//W3C//DTD SVG 1.1//EN" "http://www.w3.org/Graphics/SVG/1.1/DTD/svg11.dtd">
<svg width="100%" height="100%" viewBox="0 0 100 100" version="1.1" xmlns="http://www.w3.org/2000/svg" xmlns:xlink="http://www.w3.org/1999/xlink" xml:space="preserve" xmlns:serif="http://www.serif.com/" style="fill-rule:evenodd;clip-rule:evenodd;stroke-linejoin:round;stroke-miterlimit:2;">
    <g transform="matrix(1.17204,0,0,1.17204,-8.60215,-9.55778)">
        <path d="M21.1,87.2L69,87.2C70.1,87.2 71,86.3 71,85.2L71,77.3L79,77.3C80.1,77.3 81,76.4 81,75.3L81,14.8C81,13.7 80.1,12.8 79,12.8L31.8,12.8C30.7,12.8 29.8,13.7 29.8,14.8L29.8,20.1L21,20.1C19.9,20.1 19,21 19,22.1L19,85.2C19.1,86.3 19.9,87.2 21.1,87.2ZM56.1,27.4L64.6,37.1L56.1,37.1L56.1,27.4ZM33.8,16.8L76.9,16.8L76.9,73.3L70.9,73.3L70.9,38.6L70.7,38.2C70.7,38.1 70.6,38.1 70.6,38L70.5,37.9C70.5,37.9 70.5,37.8 70.4,37.8L55.5,20.8L55.2,20.5C55.1,20.4 55,20.4 55,20.4C55,20.4 54.9,20.4 54.9,20.3C54.8,20.3 54.7,20.2 54.6,20.2L33.8,20.2L33.8,16.8ZM23.1,24.1L52.2,24.1L52.2,39.1C52.2,40.2 53.1,41.1 54.2,41.1L67,41.1L67,83.2L23.1,83.2L23.1,24.1Z" style="fill-rule:nonzero;"/>
    </g>
    <g transform="matrix(1.17204,0,0,1.17204,-8.60215,-9.55778)">
        <path d="M28.9,37.9L44.5,37.9C45.6,37.9 46.5,37 46.5,35.9C46.5,34.8 45.6,33.9 44.5,33.9L28.9,33.9C27.8,33.9 26.9,34.8 26.9,35.9C26.9,37 27.8,37.9 28.9,37.9Z" style="fill-rule:nonzero;"/>
    </g>
    <g transform="matrix(1.17204,0,0,1.17204,-8.60215,-9.55778)">
        <path d="M59.3,45.9L28.9,45.9C27.8,45.9 26.9,46.8 26.9,47.9C26.9,49 27.8,49.9 28.9,49.9L59.3,49.9C60.4,49.9 61.3,49 61.3,47.9C61.3,46.8 60.4,45.9 59.3,45.9Z" style="fill-rule:nonzero;"/>
    </g>
    <g transform="matrix(1.17204,0,0,1.17204,-8.60215,-9.55778)">
        <path d="M59.3,53.9L28.9,53.9C27.8,53.9 26.9,54.8 26.9,55.9C26.9,57 27.8,57.9 28.9,57.9L59.3,57.9C60.4,57.9 61.3,57 61.3,55.9C61.3,54.8 60.4,53.9 59.3,53.9Z" style="fill-rule:nonzero;"/>
    </g>
    <g transform="matrix(1.17204,0,0,1.17204,-8.60215,-9.55778)">
        <path d="M59.3,61.9L28.9,61.9C27.8,61.9 26.9,62.8 26.9,63.9C26.9,65 27.8,65.9 28.9,65.9L59.3,65.9C60.4,65.9 61.3,65 61.3,63.9C61.3,62.8 60.4,61.9 59.3,61.9Z" style="fill-rule:nonzero;"/>
    </g>
    <g transform="matrix(1.17204,0,0,1.17204,-8.60215,-9.55778)">
        <path d="M37.9,69.7L28.9,69.7C27.8,69.7 26.9,70.6 26.9,71.7C26.9,72.8 27.8,73.7 28.9,73.7L37.9,73.7C39,73.7 39.9,72.8 39.9,71.7C39.9,70.6 39.1,69.7 37.9,69.7Z" style="fill-rule:nonzero;"/>
    </g>
    <g transform="matrix(1.17204,0,0,1.17204,-8.60215,-9.55778)">
        <path d="M49.4,69.7L44.9,69.7C43.8,69.7 42.9,70.6 42.9,71.7C42.9,72.8 43.8,73.7 44.9,73.7L49.4,73.7C50.5,73.7 51.4,72.8 51.4,71.7C51.4,70.6 50.6,69.7 49.4,69.7Z" style="fill-rule:nonzero;"/>
    </g>
</svg>
