<?xml version="1.0" encoding="UTF-8" standalone="no"?>
<!DOCTYPE svg PUBLIC "-//W3C//DTD SVG 1.1//EN" "http://www.w3.org/Graphics/SVG/1.1/DTD/svg11.dtd">
<svg width="100%" height="100%" viewBox="0 0 100 80" version="1.1" xmlns="http://www.w3.org/2000/svg" xmlns:xlink="http://www.w3.org/1999/xlink" xml:space="preserve" xmlns:serif="http://www.serif.com/" style="fill-rule:evenodd;clip-rule:evenodd;stroke-linejoin:round;stroke-miterlimit:2;">
    <g transform="matrix(0.0107695,-1.78729e-35,-1.78729e-35,-0.0107695,0.936056,74.7247)">
        <path d="M5,6438C2,6431 1,4981 2,3215L5,5L4558,2L9110,0L9108,3222L9105,6445L4557,6448C924,6450 8,6448 5,6438ZM3020,6420L3020,6080L30,6080L30,6420L3020,6420ZM6050,6420L6050,6080L3050,6080L3050,6420L6050,6420ZM9080,6420L9080,6080L6080,6080L6080,6420L9080,6420ZM9029,6046C9016,6035 5230,3830 5223,3830C5218,3830 5206,3844 5196,3861C5164,3916 5059,4019 4988,4066C4751,4224 4451,4240 4200,4109C4080,4047 4007,3982 3905,3849L3885,3822L1987,4931C942,5540 85,6041 82,6044C79,6047 2092,6050 4555,6050C7018,6050 9031,6048 9029,6046ZM9076,802C9071,798 5264,3015 5242,3035C5231,3045 5233,3056 5253,3096C5345,3278 5353,3524 5274,3715C5260,3748 5248,3781 5247,3789C5246,3797 5989,4237 7160,4920L9075,6037L9078,3422C9079,1984 9078,805 9076,802ZM1956,4915C3000,4306 3859,3804 3863,3800C3868,3796 3858,3760 3841,3721C3759,3529 3763,3305 3851,3111C3867,3076 3877,3043 3873,3039C3864,3031 39,800 34,800C32,800 30,1977 30,3416C30,5610 32,6031 44,6027C51,6024 912,5524 1956,4915ZM4739,4144C4829,4124 4953,4061 5032,3996C5278,3793 5365,3444 5245,3148C5129,2863 4827,2675 4515,2693C4192,2712 3928,2924 3838,3235C3809,3338 3807,3512 3834,3610C3913,3898 4153,4115 4445,4160C4520,4171 4653,4164 4739,4144ZM4020,2880C4137,2766 4248,2707 4410,2674C4610,2634 4851,2686 5010,2804C5060,2841 5155,2937 5182,2976C5195,2995 5208,3010 5213,3010C5217,3010 6078,2509 7127,1898L9033,785L6791,782C5559,781 3542,781 2311,782L72,785L1984,1901L3895,3017L3919,2986C3932,2969 3978,2921 4020,2880ZM4540,750L4540,30L30,30L30,750L4540,750ZM9080,750L9080,30L4570,30L4570,750L9080,750Z" style="fill-rule:nonzero;"/>
        <path d="M390,6340L390,6250L770,6250L770,6340L390,6340Z" style="fill-rule:nonzero;"/>
        <path d="M4360,6340L4360,6250L4740,6250L4740,6340L4360,6340Z" style="fill-rule:nonzero;"/>
        <path d="M8330,6340L8330,6250L8710,6250L8710,6340L8330,6340Z" style="fill-rule:nonzero;"/>
        <path d="M3790,5750L3790,5650L5300,5650L5300,5750L3790,5750Z" style="fill-rule:nonzero;"/>
        <path d="M7200,3470L7200,3380L8710,3380L8710,3470L7200,3470Z" style="fill-rule:nonzero;"/>
        <path d="M390,3480L390,3380L1900,3380L1900,3480L390,3480Z" style="fill-rule:nonzero;"/>
        <path d="M4475,3591C4370,3544 4330,3415 4391,3326C4468,3214 4635,3212 4708,3323C4730,3356 4735,3375 4735,3426C4735,3480 4731,3493 4704,3527C4668,3573 4599,3610 4550,3610C4531,3610 4497,3601 4475,3591Z" style="fill-rule:nonzero;"/>
        <path d="M3960,1040L3960,940L5470,940L5470,1040L3960,1040Z" style="fill-rule:nonzero;"/>
        <path d="M390,440L390,350L1150,350L1150,440L390,440Z" style="fill-rule:nonzero;"/>
        <path d="M7950,440L7950,350L8710,350L8710,440L7950,440Z" style="fill-rule:nonzero;"/>
    </g>
</svg>
