<?xml version="1.0" encoding="UTF-8" standalone="no"?>
<!DOCTYPE svg PUBLIC "-//W3C//DTD SVG 1.1//EN" "http://www.w3.org/Graphics/SVG/1.1/DTD/svg11.dtd">
<svg width="100%" height="100%" viewBox="0 0 417 521" version="1.1" xmlns="http://www.w3.org/2000/svg" xmlns:xlink="http://www.w3.org/1999/xlink" xml:space="preserve" xmlns:serif="http://www.serif.com/" style="fill-rule:evenodd;clip-rule:evenodd;stroke-linejoin:round;stroke-miterlimit:2;">
    <g transform="matrix(1,0,0,1,-17329.4,-4867.78)">
        <g transform="matrix(1,0,0,1,2872.58,3712.46)">
            <g id="noun_Gear_199797.svg" transform="matrix(4.16667,0,0,4.16667,14665.2,1415.74)">
                <g transform="matrix(1,0,0,1,-50,-62.5)">
                    <g transform="matrix(1,0,0,1,255,-334.488)">
                        <path d="M-200.3,408.4C-194,405.8 -191,398.5 -193.6,392.2C-196.2,385.9 -203.5,382.9 -209.8,385.5C-216.1,388.1 -219.1,395.4 -216.5,401.7C-214.5,406.5 -209.9,409.3 -205,409.3C-203.4,409.4 -201.8,409.1 -200.3,408.4ZM-213,400.3C-214.8,395.9 -212.7,390.8 -208.3,389C-207.2,388.6 -206.1,388.3 -205,388.3C-201.6,388.3 -198.4,390.3 -197,393.6C-195.2,398 -197.3,403.1 -201.7,404.9C-206.1,406.8 -211.2,404.7 -213,400.3ZM-209,422.7L-208.2,420.7C-206.1,421 -204,421 -201.9,420.7L-201.1,422.7C-200.4,424.3 -198.9,425.3 -197.2,425.3C-196.7,425.3 -196.1,425.2 -195.6,425L-192,423.5C-191,423.1 -190.1,422.3 -189.7,421.2C-189.3,420.2 -189.3,419 -189.7,418L-190.5,416C-188.8,414.7 -187.3,413.2 -186.1,411.6L-184.1,412.4C-182,413.3 -179.5,412.3 -178.6,410.1L-177.1,406.5C-176.2,404.4 -177.2,401.9 -179.4,401L-181.4,400.2C-181.1,398.1 -181.1,396 -181.4,393.9L-179.4,393.1C-178.4,392.7 -177.5,391.9 -177.1,390.8C-176.7,389.8 -176.7,388.6 -177.1,387.6L-178.6,384C-179.5,381.9 -182,380.8 -184.1,381.7L-186.1,382.5C-187.4,380.8 -188.9,379.3 -190.5,378.1L-189.7,376.1C-188.8,374 -189.8,371.5 -192,370.6L-195.6,369.1C-197.7,368.2 -200.2,369.2 -201.1,371.4L-201.9,373.4C-204,373.1 -206.1,373.1 -208.2,373.4L-209,371.4C-209.9,369.3 -212.4,368.2 -214.5,369.1L-218.1,370.6C-219.1,371 -220,371.8 -220.4,372.9C-220.8,374 -220.8,375.1 -220.4,376.1L-219.6,378.1C-221.3,379.4 -222.8,380.9 -224,382.5L-226,381.7C-228.1,380.8 -230.6,381.8 -231.5,384L-233,387.6C-233.9,389.7 -232.9,392.2 -230.7,393.1L-228.7,393.9C-229,396 -229,398.1 -228.7,400.2L-230.7,401C-232.8,401.9 -233.9,404.4 -233,406.5L-231.5,410.1C-230.6,412.2 -228.1,413.3 -226,412.4L-224,411.6C-222.7,413.3 -221.2,414.8 -219.6,416L-220.4,418C-221.3,420.1 -220.3,422.6 -218.1,423.5L-214.5,425C-212.3,425.9 -209.8,424.9 -209,422.7ZM-211,417.9L-212.4,421.2C-212.5,421.4 -212.8,421.6 -213,421.5L-216.6,420C-216.8,419.9 -217,419.6 -216.9,419.4L-215.5,416.1C-215.2,415.3 -215.4,414.3 -216.2,413.8C-218.4,412.3 -220.3,410.5 -221.8,408.2C-222.3,407.5 -223.2,407.2 -224.1,407.5L-227.4,408.9C-227.6,409 -227.9,408.9 -228,408.6L-229.5,405C-229.6,404.8 -229.5,404.5 -229.2,404.4L-225.9,403C-225.1,402.7 -224.6,401.8 -224.8,400.9C-225.3,398.3 -225.3,395.7 -224.8,393C-224.6,392.1 -225.1,391.2 -225.9,390.9L-229.2,389.5C-229.4,389.4 -229.6,389.1 -229.5,388.9L-228,385.3C-227.9,385.1 -227.6,384.9 -227.4,385L-224.1,386.4C-223.3,386.7 -222.3,386.5 -221.8,385.7C-220.3,383.5 -218.5,381.6 -216.2,380.1C-215.5,379.6 -215.2,378.7 -215.5,377.8L-216.9,374.5C-217,374.4 -216.9,374.2 -216.9,374.1C-216.9,374 -216.8,373.9 -216.6,373.8L-213,372.3C-212.8,372.2 -212.5,372.3 -212.4,372.6L-211,375.9C-210.7,376.7 -209.8,377.2 -208.9,377C-206.3,376.5 -203.7,376.5 -201,377C-200.1,377.2 -199.2,376.7 -198.9,375.9L-197.5,372.6C-197.4,372.4 -197.1,372.2 -196.9,372.3L-193.3,373.8C-193.1,373.9 -192.9,374.2 -193,374.4L-194.4,377.7C-194.7,378.5 -194.5,379.5 -193.7,380C-191.5,381.5 -189.6,383.3 -188.1,385.6C-187.6,386.3 -186.7,386.6 -185.8,386.3L-182.5,384.9C-182.3,384.8 -182,384.9 -181.9,385.2L-180.4,388.8C-180.3,388.9 -180.4,389.1 -180.4,389.2C-180.4,389.3 -180.5,389.4 -180.7,389.5L-184,390.9C-184.8,391.2 -185.3,392.1 -185.1,393C-184.6,395.6 -184.6,398.2 -185.1,400.9C-185.3,401.8 -184.8,402.7 -184,403L-180.7,404.4C-180.5,404.5 -180.3,404.8 -180.4,405L-181.9,408.6C-182,408.8 -182.3,409 -182.5,408.9L-185.8,407.5C-186.6,407.2 -187.6,407.4 -188.1,408.2C-189.6,410.4 -191.4,412.3 -193.7,413.8C-194.4,414.3 -194.7,415.2 -194.4,416.1L-193,419.4C-192.9,419.5 -193,419.7 -193,419.8C-193,419.9 -193.1,420 -193.3,420.1L-196.9,421.6C-197,421.7 -197.2,421.6 -197.3,421.6C-197.4,421.6 -197.5,421.5 -197.6,421.3L-199,418C-199.3,417.3 -200,416.8 -200.7,416.8L-201.1,416.8C-203.7,417.3 -206.3,417.3 -209,416.8C-209.8,416.6 -210.7,417.1 -211,417.9ZM-204.5,439L-201.8,441.7C-201.1,442.4 -201.1,443.6 -201.8,444.3C-202.2,444.7 -202.6,444.8 -203.1,444.8C-203.6,444.8 -204.1,444.6 -204.4,444.3L-210.3,438.4C-211,437.7 -211,436.5 -210.3,435.8L-204.4,429.9C-203.7,429.2 -202.5,429.2 -201.8,429.9C-201.1,430.6 -201.1,431.8 -201.8,432.5L-204.5,435.2C-183.6,434.9 -166.7,417.9 -166.7,397C-166.7,396 -165.9,395.1 -164.8,395.1C-163.7,395.1 -162.9,395.9 -162.9,397C-163,420 -181.6,438.8 -204.5,439ZM-243.3,397C-243.3,398 -244.1,398.9 -245.2,398.9C-246.3,398.9 -247.1,398.1 -247.1,397C-247.1,374 -228.5,355.2 -205.6,355L-208.3,352.3C-209,351.6 -209,350.4 -208.3,349.7C-207.6,349 -206.4,349 -205.7,349.7L-199.8,355.6C-199.4,356 -199.3,356.4 -199.3,356.9C-199.3,357.4 -199.5,357.9 -199.8,358.2L-205.7,364.1C-206.1,364.5 -206.5,364.6 -207,364.6C-207.5,364.6 -208,364.4 -208.3,364.1C-209,363.4 -209,362.2 -208.3,361.5L-205.6,358.8C-226.4,359 -243.3,376.1 -243.3,397Z" style="fill-rule:nonzero;"/>
                    </g>
                </g>
            </g>
        </g>
    </g>
</svg>
