<?xml version="1.0" encoding="UTF-8" standalone="no"?>
<!DOCTYPE svg PUBLIC "-//W3C//DTD SVG 1.1//EN" "http://www.w3.org/Graphics/SVG/1.1/DTD/svg11.dtd">
<svg width="100%" height="100%" viewBox="0 0 100 75" version="1.1" xmlns="http://www.w3.org/2000/svg" xmlns:xlink="http://www.w3.org/1999/xlink" xml:space="preserve" xmlns:serif="http://www.serif.com/" style="fill-rule:evenodd;clip-rule:evenodd;stroke-linejoin:round;stroke-miterlimit:2;">
    <g transform="matrix(1,0,0,1,0,-25)">
        <path d="M6.184,57.355C3.708,59.83 3.708,63.855 6.184,66.326C8.654,68.8 12.677,68.8 15.15,66.326C17.624,63.855 17.627,59.828 15.15,57.355C12.678,54.881 8.654,54.887 6.184,57.355Z" style="fill:none;fill-rule:nonzero;"/>
    </g>
    <g transform="matrix(1,0,0,1,0,-25)">
        <path d="M55.557,59.588C53.082,62.061 53.082,66.087 55.557,68.559C58.028,71.032 62.053,71.032 64.526,68.559C67,66.087 67.003,62.059 64.526,59.588C62.052,57.113 58.027,57.115 55.557,59.588Z" style="fill:none;fill-rule:nonzero;"/>
    </g>
    <g transform="matrix(1,0,0,1,0,-25)">
        <path d="M83.232,32.371C80.755,34.843 80.755,38.87 83.232,41.34C85.703,43.814 89.726,43.814 92.199,41.34C94.673,38.87 94.676,34.841 92.199,32.371C89.727,29.897 85.703,29.899 83.232,32.371Z" style="fill:none;fill-rule:nonzero;"/>
    </g>
    <g transform="matrix(1,0,0,1,0.810812,-12.9664)">
        <path d="M94.553,30.021C90.782,26.253 84.649,26.253 80.878,30.021C77.518,33.379 77.159,38.61 79.786,42.378L65.824,56.34C62.465,53.828 57.842,53.783 54.437,56.207L42.109,43.875C44.816,40.1 44.485,34.802 41.098,31.413C37.326,27.646 31.193,27.646 27.422,31.413C24.029,34.807 23.7,40.108 26.414,43.884L16.299,53.998C12.522,51.288 7.221,51.616 3.828,55.006C0.058,58.777 0.058,64.91 3.828,68.68C7.602,72.448 13.732,72.448 17.5,68.68C20.871,65.311 21.219,60.057 18.567,56.286L28.703,46.15C32.03,48.489 36.499,48.487 39.822,46.146L52.162,58.486C49.482,62.259 49.822,67.533 53.203,70.911C56.976,74.68 63.105,74.68 66.876,70.911C70.2,67.588 70.589,62.428 68.053,58.668L82.045,44.675C85.824,47.416 91.149,47.096 94.55,43.695C98.32,39.925 98.32,33.79 94.553,30.021ZM15.15,66.326C12.677,68.8 8.654,68.8 6.184,66.326C3.708,63.855 3.708,59.83 6.184,57.355C8.654,54.886 12.678,54.88 15.15,57.355C17.627,59.828 17.624,63.855 15.15,66.326ZM33.049,42.624L29.183,38.765L30.682,37.267L33.05,39.629L39.023,33.666L40.523,35.162L33.049,42.624ZM64.525,68.559C62.052,71.032 58.027,71.032 55.556,68.559C53.081,66.087 53.081,62.061 55.556,59.588C58.027,57.115 62.051,57.113 64.525,59.588C67.002,62.059 66.999,66.087 64.525,68.559ZM92.199,41.34C89.726,43.814 85.703,43.814 83.232,41.34C80.755,38.87 80.755,34.843 83.232,32.371C85.703,29.899 89.726,29.897 92.199,32.371C94.676,34.841 94.673,38.87 92.199,41.34Z" style="fill-rule:nonzero;"/>
    </g>
</svg>
