<?xml version="1.0" encoding="UTF-8" standalone="no"?>
<!DOCTYPE svg PUBLIC "-//W3C//DTD SVG 1.1//EN" "http://www.w3.org/Graphics/SVG/1.1/DTD/svg11.dtd">
<svg width="100%" height="100%" viewBox="0 0 100 100" version="1.1" xmlns="http://www.w3.org/2000/svg" xmlns:xlink="http://www.w3.org/1999/xlink" xml:space="preserve" xmlns:serif="http://www.serif.com/" style="fill-rule:evenodd;clip-rule:evenodd;stroke-linejoin:round;stroke-miterlimit:2;">
    <g transform="matrix(0.188519,0,0,0.188519,1.73909,0.261965)">
        <rect x="48" y="48" width="16" height="16"/>
    </g>
    <g transform="matrix(0.188519,0,0,0.188519,1.73909,0.261965)">
        <rect x="80" y="48" width="16" height="16"/>
    </g>
    <g transform="matrix(0.188519,0,0,0.188519,1.73909,0.261965)">
        <rect x="112" y="48" width="16" height="16"/>
    </g>
    <g transform="matrix(0.188519,0,0,0.188519,1.73909,0.261965)">
        <path d="M472,16L40,16C26.8,16 16,26.8 16,40L16,472C16,485.2 26.8,496 40,496L472,496C485.2,496 496,485.2 496,472L496,40C496,26.8 485.2,16 472,16ZM472,480L40,480C35.6,480 32,476.4 32,472L32,40C32,35.6 35.6,32 40,32L472,32C476.4,32 480,35.6 480,40L480,48L144,48L144,64L480,64L480,472C480,476.4 476.4,480 472,480Z" style="fill-rule:nonzero;"/>
    </g>
    <g transform="matrix(0.188519,0,0,0.188519,1.73909,0.261965)">
        <path d="M56,336L296,336C300.4,336 304,332.4 304,328L304,88C304,83.6 300.4,80 296,80L56,80C51.6,80 48,83.6 48,88L48,328C48,332.4 51.6,336 56,336ZM141.5,160.4C138.2,161.5 136,164.5 136,168L136,199.6C118.4,186.5 114.8,161.6 127.9,144C135.4,133.9 147.2,128 159.7,128L192.3,128C214.2,128 232,145.8 232,167.7C232,180.2 226.1,192.1 216,199.5L216,168C216,165.9 215.2,163.8 213.7,162.3L197.7,146.3C195.6,144.2 192.4,143.4 189.5,144.4L141.5,160.4ZM152,173.8L189.8,161.2L200,171.4L200,201.3C200,207.4 196.6,212.9 191.2,215.6L188.5,217C185.8,218.4 184.1,221.1 184.1,224.2L184.1,244.9L176.1,252.9L168.1,244.9L168.1,224C168.1,221 166.4,218.2 163.7,216.8L161,215.4C155.6,212.7 152.1,207.2 152.2,201.1L152.2,173.8L152,173.8ZM194.3,257L216.5,263.3L206.4,276.8L188.2,263.1L194.3,257ZM157.7,257L163.8,263.1L145.6,276.8L135.5,263.3L157.7,257ZM119.4,268.5L137.6,292.8C140.3,296.3 145.3,297.1 148.8,294.4L168,280L168,304L184,304L184,280L203.2,294.4C206.7,297.1 211.7,296.3 214.4,292.8L232.6,268.5C238.6,271.7 243,277.3 244.7,283.9L253.7,320L232,320L232,304L216,304L216,320L136,320L136,304L120,304L120,320L98.2,320L107.2,283.9C108.9,277.3 113.3,271.7 119.4,268.5ZM64,96L288,96L288,320L270.2,320L260.2,280C256.7,266.1 246.1,255.2 232.4,251.2L200,242L200,228.9C203.5,226.9 206.7,224.2 209.2,221L213,219.5C241.6,208.1 255.5,175.7 244,147.1C235.5,126 215.1,112.1 192.3,112.1L159.7,112.1C128.9,112.1 104,137 104,167.8C104,190.6 117.9,211.1 139,219.5L142.8,221C145.3,224.2 148.4,226.9 152,228.9L152,242L119.6,251.3C105.9,255.2 95.3,266.2 91.8,280.1L81.8,320.1L64,320.1L64,96Z" style="fill-rule:nonzero;"/>
    </g>
    <g transform="matrix(0.188519,0,0,0.188519,1.73909,0.261965)">
        <rect x="328" y="96" width="32" height="16"/>
    </g>
    <g transform="matrix(0.188519,0,0,0.188519,1.73909,0.261965)">
        <rect x="376" y="96" width="88" height="16"/>
    </g>
    <g transform="matrix(0.188519,0,0,0.188519,1.73909,0.261965)">
        <rect x="328" y="152" width="32" height="16"/>
    </g>
    <g transform="matrix(0.188519,0,0,0.188519,1.73909,0.261965)">
        <rect x="376" y="152" width="88" height="16"/>
    </g>
    <g transform="matrix(0.188519,0,0,0.188519,1.73909,0.261965)">
        <rect x="328" y="208" width="32" height="16"/>
    </g>
    <g transform="matrix(0.188519,0,0,0.188519,1.73909,0.261965)">
        <rect x="376" y="208" width="88" height="16"/>
    </g>
    <g transform="matrix(0.188519,0,0,0.188519,1.73909,0.261965)">
        <rect x="328" y="264" width="32" height="16"/>
    </g>
    <g transform="matrix(0.188519,0,0,0.188519,1.73909,0.261965)">
        <rect x="376" y="264" width="88" height="16"/>
    </g>
    <g transform="matrix(0.188519,0,0,0.188519,1.73909,0.261965)">
        <rect x="328" y="320" width="32" height="16"/>
    </g>
    <g transform="matrix(0.188519,0,0,0.188519,1.73909,0.261965)">
        <rect x="376" y="320" width="88" height="16"/>
    </g>
    <g transform="matrix(0.188519,0,0,0.188519,1.73909,0.261965)">
        <rect x="248" y="352" width="16" height="112"/>
    </g>
    <g transform="matrix(0.188519,0,0,0.188519,1.73909,0.261965)">
        <path d="M312,376C298.7,376 288,386.7 288,400C288,413.3 298.7,424 312,424C325.3,424 336,413.3 336,400C336,386.8 325.2,376 312,376ZM312,408C307.6,408 304,404.4 304,400C304,395.6 307.6,392 312,392C316.4,392 320,395.6 320,400C320,404.4 316.4,408 312,408Z" style="fill-rule:nonzero;"/>
    </g>
    <g transform="matrix(0.188519,0,0,0.188519,1.73909,0.261965)">
        <path d="M376,376C362.7,376 352,386.7 352,400C352,413.3 362.7,424 376,424C389.3,424 400,413.3 400,400C400,386.8 389.2,376 376,376ZM376,408C371.6,408 368,404.4 368,400C368,395.6 371.6,392 376,392C380.4,392 384,395.6 384,400C384,404.4 380.4,408 376,408Z" style="fill-rule:nonzero;"/>
    </g>
    <g transform="matrix(0.188519,0,0,0.188519,1.73909,0.261965)">
        <path d="M440,376C426.7,376 416,386.7 416,400C416,413.3 426.7,424 440,424C453.3,424 464,413.3 464,400C464,386.8 453.2,376 440,376ZM440,408C435.6,408 432,404.4 432,400C432,395.6 435.6,392 440,392C444.4,392 448,395.6 448,400C448,404.4 444.4,408 440,408Z" style="fill-rule:nonzero;"/>
    </g>
    <g transform="matrix(0.188519,0,0,0.188519,1.73909,0.261965)">
        <rect x="288" y="440" width="48" height="16"/>
    </g>
    <g transform="matrix(0.188519,0,0,0.188519,1.73909,0.261965)">
        <rect x="352" y="440" width="48" height="16"/>
    </g>
    <g transform="matrix(0.188519,0,0,0.188519,1.73909,0.261965)">
        <rect x="416" y="440" width="48" height="16"/>
    </g>
    <g transform="matrix(0.188519,0,0,0.188519,1.73909,0.261965)">
        <path d="M216,352L56,352C51.6,352 48,355.6 48,360L48,392C48,396.4 51.6,400 56,400L216,400C220.4,400 224,396.4 224,392L224,360C224,355.6 220.4,352 216,352ZM64,368L152,368L152,384L64,384L64,368ZM208,384L168,384L168,368L208,368L208,384Z" style="fill-rule:nonzero;"/>
    </g>
    <g transform="matrix(0.188519,0,0,0.188519,1.73909,0.261965)">
        <path d="M216,416L56,416C51.6,416 48,419.6 48,424L48,456C48,460.4 51.6,464 56,464L216,464C220.4,464 224,460.4 224,456L224,424C224,419.6 220.4,416 216,416ZM64,432L104,432L104,448L64,448L64,432ZM208,448L120,448L120,432L208,432L208,448Z" style="fill-rule:nonzero;"/>
    </g>
</svg>
