<?xml version="1.0" encoding="UTF-8" standalone="no"?>
<!DOCTYPE svg PUBLIC "-//W3C//DTD SVG 1.1//EN" "http://www.w3.org/Graphics/SVG/1.1/DTD/svg11.dtd">
<svg width="100%" height="100%" viewBox="0 0 100 50" version="1.1" xmlns="http://www.w3.org/2000/svg" xmlns:xlink="http://www.w3.org/1999/xlink" xml:space="preserve" xmlns:serif="http://www.serif.com/" style="fill-rule:evenodd;clip-rule:evenodd;stroke-linejoin:round;stroke-miterlimit:2;">
    <g transform="matrix(1,0,0,1,3.39435e-05,-28.5)">
        <path d="M71.752,31.632L72.917,36.132L7.752,36.132L7.752,39.132L72.917,39.132L71.752,43.632L87.502,39.132L87.752,39.132L87.752,39.06L92.752,37.632L87.752,36.204L87.752,36.132L87.502,36.132L71.752,31.632L71.752,31.632ZM12.313,45.882L12.313,45.896C10.056,45.99 8.11,47.731 6.742,50.339C5.35,52.993 4.509,56.59 4.5,60.558C4.491,64.525 5.317,68.133 6.697,70.808C8.03,73.39 9.92,75.139 12.125,75.323L12.125,75.353L87.125,75.353L87.125,75.333C87.25,75.343 87.373,75.368 87.5,75.368C89.828,75.368 91.84,73.602 93.246,70.933C94.652,68.263 95.5,64.634 95.5,60.632C95.5,56.629 94.652,53 93.246,50.331C91.84,47.662 89.828,45.896 87.5,45.896C87.436,45.896 87.376,45.91 87.313,45.913L87.313,45.882L12.313,45.882L12.313,45.882ZM12.445,46.882L84.615,46.882C83.509,47.659 82.535,48.848 81.754,50.331C80.348,53 79.5,56.629 79.5,60.632C79.5,64.634 80.348,68.263 81.754,70.933C82.525,72.397 83.484,73.574 84.572,74.353L12.391,74.353C10.592,74.296 8.871,72.842 7.586,70.351C6.3,67.859 5.492,64.386 5.5,60.56C5.508,56.734 6.333,53.274 7.629,50.804C8.925,48.334 10.647,46.91 12.445,46.882ZM87.5,46.896C89.315,46.896 91.053,48.314 92.361,50.798C93.67,53.281 94.5,56.772 94.5,60.632C94.5,64.492 93.67,67.982 92.361,70.466C91.053,72.949 89.315,74.368 87.5,74.368C85.685,74.368 83.947,72.949 82.639,70.466C81.33,67.982 80.5,64.492 80.5,60.632C80.5,56.772 81.33,53.281 82.639,50.798C83.947,48.314 85.685,46.896 87.5,46.896ZM71.578,48.048L64.941,51.88L64.941,59.544L65.191,59.688L71.578,63.376L78.215,59.544L78.215,51.88L71.578,48.048ZM39.393,48.915L32.756,52.747L32.756,60.411L33.006,60.556L39.393,64.243L46.029,60.411L46.029,52.747L39.393,48.915ZM71.578,49.202L76.715,52.167L71.578,55.134L66.441,52.167L71.578,49.202ZM39.393,50.069L44.529,53.034L39.393,56.001L34.256,53.034L39.393,50.069ZM65.941,53.034L71.078,55.999L71.078,61.931L65.941,58.966L65.941,53.034ZM77.215,53.034L77.215,58.966L72.078,61.931L72.078,55.999L77.215,53.034ZM33.756,53.901L38.893,56.866L38.893,62.798L33.756,59.833L33.756,53.901ZM45.029,53.901L45.029,59.833L39.893,62.798L39.893,56.866L45.029,53.901ZM21.48,55.134L14.844,58.966L14.844,66.63L15.094,66.774L21.48,70.462L28.117,66.63L28.117,58.966L21.48,55.134ZM21.48,56.288L26.617,59.253L21.48,62.22L16.344,59.253L21.48,56.288ZM55.234,57.483L48.598,61.315L48.598,68.979L48.848,69.124L55.234,72.812L61.871,68.979L61.871,61.315L55.234,57.483ZM55.234,58.638L60.371,61.603L55.234,64.569L50.098,61.603L55.234,58.638ZM15.844,60.12L20.98,63.085L20.98,69.017L15.844,66.052L15.844,60.12ZM27.117,60.12L27.117,66.052L21.98,69.017L21.98,63.085L27.117,60.12ZM49.598,62.47L54.734,65.435L54.734,71.366L49.598,68.401L49.598,62.47ZM60.871,62.47L60.871,68.401L55.734,71.366L55.734,65.435L60.871,62.47Z" style="fill-rule:nonzero;"/>
    </g>
</svg>
