<?xml version="1.0" encoding="UTF-8" standalone="no"?>
<!DOCTYPE svg PUBLIC "-//W3C//DTD SVG 1.1//EN" "http://www.w3.org/Graphics/SVG/1.1/DTD/svg11.dtd">
<svg width="100%" height="100%" viewBox="0 0 64 64" version="1.1" xmlns="http://www.w3.org/2000/svg" xmlns:xlink="http://www.w3.org/1999/xlink" xml:space="preserve" xmlns:serif="http://www.serif.com/" style="fill-rule:evenodd;clip-rule:evenodd;stroke-linejoin:round;stroke-miterlimit:2;">
    <g transform="matrix(1,0,0,1,0,-0.029)">
        <path d="M36,33C38.757,33 41,30.757 41,28C41,25.243 38.757,23 36,23C33.243,23 31,25.243 31,28C31,30.757 33.243,33 36,33ZM36,25C37.654,25 39,26.346 39,28C39,29.654 37.654,31 36,31C34.346,31 33,29.654 33,28C33,26.346 34.346,25 36,25Z" style="fill-rule:nonzero;"/>
    </g>
    <g transform="matrix(1,0,0,1,0,-0.029)">
        <path d="M26,25C25.448,25 25,25.448 25,26L25,30C25,30.552 25.448,31 26,31L27.538,31.044C27.635,31.312 27.743,31.574 27.885,31.872L26.808,32.949C26.417,33.34 26.417,33.972 26.808,34.363L29.637,37.192C30.028,37.583 30.66,37.583 31.051,37.192L32.171,36.136C32.427,36.256 32.689,36.365 33.001,36.475L33.001,38C33.001,38.552 33.449,39 34.001,39L38.001,39C38.553,39 39.001,38.552 39.001,38L39.045,36.462C39.313,36.365 39.575,36.257 39.873,36.115L40.95,37.192C41.341,37.583 41.973,37.583 42.364,37.192L45.193,34.363C45.584,33.972 45.584,33.34 45.193,32.949L44.137,31.829C44.257,31.573 44.366,31.311 44.476,30.999L46,30.999C46.552,30.999 47,30.551 47,29.999L47,25.999C47,25.447 46.552,24.999 46,24.999L44.462,24.955C44.365,24.687 44.257,24.425 44.115,24.127L45.192,23.05C45.583,22.659 45.583,22.027 45.192,21.636L42.363,18.807C41.972,18.416 41.34,18.416 40.949,18.807L39.829,19.863C39.573,19.743 39.311,19.634 38.999,19.524L38.999,18C38.999,17.448 38.551,17 37.999,17L33.999,17C33.447,17 32.999,17.448 32.999,18L32.955,19.538C32.687,19.635 32.425,19.743 32.127,19.885L31.05,18.808C30.659,18.417 30.027,18.417 29.636,18.808L26.807,21.637C26.416,22.028 26.416,22.66 26.807,23.051L27.863,24.171C27.743,24.427 27.634,24.689 27.524,25.001L26,25.001L26,25ZM29.299,22.713L28.929,22.343L30.344,20.928L30.714,21.298C31.317,21.902 32.223,22.048 33.022,21.673C33.221,21.579 33.425,21.494 33.633,21.42C34.463,21.123 35,20.378 35,19.524L35,19L37,19L37,19.524C37,20.378 37.537,21.123 38.367,21.42C38.576,21.495 38.781,21.58 38.979,21.673C39.779,22.05 40.686,21.902 41.287,21.298L41.657,20.928L43.072,22.343L42.702,22.713C42.098,23.316 41.951,24.222 42.327,25.021C42.421,25.22 42.506,25.424 42.58,25.632C42.877,26.463 43.622,27 44.476,27L45,27L45,29L44.476,29C43.622,29 42.877,29.537 42.58,30.367C42.505,30.576 42.42,30.781 42.327,30.979C41.951,31.778 42.098,32.684 42.702,33.287L43.072,33.657L41.657,35.072L41.287,34.702C40.684,34.098 39.778,33.952 38.979,34.327C38.78,34.421 38.576,34.506 38.368,34.58C37.537,34.877 37,35.622 37,36.476L37,37L35,37L35,36.476C35,35.622 34.463,34.877 33.633,34.58C33.424,34.505 33.219,34.42 33.021,34.327C32.222,33.951 31.316,34.098 30.713,34.702L30.343,35.072L28.928,33.657L29.298,33.287C29.902,32.684 30.049,31.778 29.673,30.979C29.579,30.78 29.494,30.576 29.42,30.368C29.123,29.537 28.378,29 27.524,29L27,29L27,27L27.524,27C28.378,27 29.123,26.463 29.42,25.633C29.495,25.424 29.58,25.219 29.673,25.021C30.049,24.222 29.902,23.316 29.299,22.713Z" style="fill-rule:nonzero;"/>
    </g>
    <g transform="matrix(1,0,0,1,0,-0.029)">
        <path d="M41.305,50.723C42.336,49.806 43,48.485 43,47C43,44.243 40.757,42 38,42C35.243,42 33,44.243 33,47C33,48.485 33.664,49.806 34.695,50.723C33.129,51.437 31.83,52.637 31,54.136C30.17,52.638 28.871,51.438 27.305,50.723C28.336,49.806 29,48.485 29,47C29,44.243 26.757,42 24,42C21.243,42 19,44.243 19,47C19,48.485 19.664,49.806 20.695,50.723C19.129,51.437 17.83,52.637 17,54.136C16.17,52.638 14.871,51.438 13.305,50.723C14.336,49.806 15,48.485 15,47C15,44.243 12.757,42 10,42C7.243,42 5,44.243 5,47C5,48.485 5.664,49.806 6.695,50.723C3.93,51.984 2,54.768 2,58L2,61C2,61.552 2.448,62 3,62L45,62C45.552,62 46,61.552 46,61L46,58C46,54.768 44.07,51.984 41.305,50.723ZM10,44C11.654,44 13,45.346 13,47C13,48.654 11.654,50 10,50C8.346,50 7,48.654 7,47C7,45.346 8.346,44 10,44ZM16,60L4,60L4,58C4,54.691 6.691,52 10,52C13.309,52 16,54.691 16,58L16,60ZM24,44C25.654,44 27,45.346 27,47C27,48.654 25.654,50 24,50C22.346,50 21,48.654 21,47C21,45.346 22.346,44 24,44ZM30,60L18,60L18,58C18,54.691 20.691,52 24,52C27.309,52 30,54.691 30,58L30,60ZM38,44C39.654,44 41,45.346 41,47C41,48.654 39.654,50 38,50C36.346,50 35,48.654 35,47C35,45.346 36.346,44 38,44ZM44,60L32,60L32,58C32,54.691 34.691,52 38,52C41.309,52 44,54.691 44,58L44,60Z" style="fill-rule:nonzero;"/>
    </g>
    <g transform="matrix(1,0,0,1,0,-0.029)">
        <path d="M19.191,33.857C19.352,33.953 19.53,34 19.707,34C19.967,34 20.225,33.899 20.418,33.704C20.742,33.376 20.801,32.87 20.56,32.476C19.572,30.867 18.448,28.277 18.708,25.035C18.865,23.176 19.748,21.387 21.195,19.996L22.172,19.029L23.587,20.443C23.864,20.72 24.276,20.809 24.641,20.674C25.007,20.538 25.261,20.202 25.291,19.813L25.998,10.621C26.02,10.33 25.915,10.044 25.708,9.837C25.501,9.63 25.214,9.524 24.924,9.547L15.732,10.254C15.343,10.284 15.006,10.538 14.871,10.904C14.736,11.27 14.826,11.682 15.102,11.958L16.516,13.373L15.138,14.752C13.425,16.155 12.252,17.878 11.744,19.737C10.411,24.61 13.474,30.417 19.191,33.857ZM13.672,20.264C14.073,18.796 15.029,17.415 16.438,16.271C16.465,16.249 16.49,16.226 16.515,16.202L18.636,14.08C19.027,13.689 19.027,13.057 18.636,12.666L18.052,12.082L23.914,11.631L23.463,17.493L22.879,16.909C22.488,16.518 21.856,16.518 21.465,16.909L19.809,18.555C18.012,20.282 16.913,22.523 16.711,24.92C16.563,26.759 16.803,28.42 17.222,29.856C14.242,26.994 12.823,23.368 13.672,20.264Z" style="fill-rule:nonzero;"/>
    </g>
    <g transform="matrix(1,0,0,1,0,-0.029)">
        <path d="M60.258,38.808C61.59,33.935 58.527,28.128 52.809,24.687C52.413,24.448 51.907,24.512 51.583,24.84C51.258,25.167 51.2,25.674 51.441,26.067C52.429,27.675 53.553,30.264 53.293,33.509C53.136,35.368 52.253,37.157 50.806,38.547L49.829,39.514L48.414,38.1C48.138,37.824 47.726,37.736 47.36,37.869C46.994,38.005 46.74,38.341 46.71,38.73L46.003,47.922C45.981,48.213 46.086,48.499 46.293,48.706C46.481,48.896 46.736,49 47,49C47.025,49 47.051,48.999 47.077,48.997L56.269,48.29C56.658,48.26 56.995,48.006 57.13,47.64C57.265,47.274 57.175,46.862 56.899,46.586L55.485,45.171L56.863,43.793C58.577,42.39 59.75,40.667 60.258,38.808ZM55.562,42.274C55.535,42.295 55.51,42.318 55.485,42.343L53.364,44.464C52.973,44.855 52.973,45.487 53.364,45.878L53.948,46.462L48.086,46.913L48.537,41.051L49.121,41.635C49.512,42.026 50.144,42.026 50.535,41.635L52.191,39.989C53.988,38.262 55.087,36.021 55.289,33.624C55.437,31.785 55.197,30.124 54.779,28.689C57.757,31.552 59.176,35.176 58.327,38.28C57.927,39.749 56.971,41.129 55.562,42.274Z" style="fill-rule:nonzero;"/>
    </g>
    <g transform="matrix(1,0,0,1,0,-0.029)">
        <path d="M51.293,14.707C51.481,14.895 51.735,15 52,15C52.015,15 52.03,15 52.045,14.999C52.326,14.986 52.588,14.856 52.768,14.64L57.768,8.64L56.232,7.36L51.933,12.519L49.707,10.293L48.293,11.707L51.293,14.707Z" style="fill-rule:nonzero;"/>
    </g>
    <g transform="matrix(1,0,0,1,0,-0.029)">
        <path d="M59.202,14.25C58.941,14.748 58.619,15.215 58.244,15.638L59.742,16.963C60.222,16.42 60.637,15.82 60.973,15.18L59.202,14.25Z" style="fill-rule:nonzero;"/>
    </g>
    <g transform="matrix(1,0,0,1,0,-0.029)">
        <path d="M56.982,16.757C56.519,17.078 56.018,17.342 55.492,17.543L56.205,19.411C56.882,19.153 57.526,18.813 58.122,18.4L56.982,16.757Z" style="fill-rule:nonzero;"/>
    </g>
    <g transform="matrix(1,0,0,1,0,-0.029)">
        <path d="M62,10.977L61.444,10.956L60,11C60,11.567 59.932,12.13 59.799,12.674L61.741,13.151C61.913,12.451 62,11.728 62,10.977Z" style="fill-rule:nonzero;"/>
    </g>
    <g transform="matrix(1,0,0,1,0,-0.029)">
        <path d="M46.811,14.273L45.044,15.211C45.382,15.849 45.798,16.447 46.281,16.988L47.774,15.658C47.398,15.236 47.074,14.77 46.811,14.273Z" style="fill-rule:nonzero;"/>
    </g>
    <g transform="matrix(1,0,0,1,0,-0.029)">
        <path d="M59.786,9.273L61.724,8.782C61.546,8.079 61.282,7.399 60.94,6.76L59.176,7.703C59.443,8.2 59.648,8.728 59.786,9.273Z" style="fill-rule:nonzero;"/>
    </g>
    <g transform="matrix(1,0,0,1,0,-0.029)">
        <path d="M54.1,19.934L53.858,17.949C53.306,18.016 52.725,18.017 52.17,17.952L51.937,19.938C52.285,19.979 52.64,20 53,20C53.373,20 53.739,19.978 54.1,19.934Z" style="fill-rule:nonzero;"/>
    </g>
    <g transform="matrix(1,0,0,1,0,-0.029)">
        <path d="M50.533,17.553C50.006,17.355 49.504,17.092 49.04,16.773L47.905,18.42C48.502,18.831 49.149,19.169 49.827,19.425L50.533,17.553Z" style="fill-rule:nonzero;"/>
    </g>
    <g transform="matrix(1,0,0,1,0,-0.029)">
        <path d="M46.785,7.774L45.011,6.851C44.676,7.495 44.42,8.179 44.251,8.883L46.195,9.352C46.327,8.805 46.525,8.274 46.785,7.774Z" style="fill-rule:nonzero;"/>
    </g>
    <g transform="matrix(1,0,0,1,0,-0.029)">
        <path d="M48.995,5.258L47.849,3.618C47.256,4.033 46.713,4.518 46.235,5.062L47.737,6.382C48.11,5.959 48.533,5.581 48.995,5.258Z" style="fill-rule:nonzero;"/>
    </g>
    <g transform="matrix(1,0,0,1,0,-0.029)">
        <path d="M46.208,12.7C46.072,12.157 46.002,11.594 46,11.027L44,11.035C44.003,11.763 44.093,12.486 44.267,13.185L46.208,12.7Z" style="fill-rule:nonzero;"/>
    </g>
    <g transform="matrix(1,0,0,1,0,-0.029)">
        <path d="M59.696,4.986C59.212,4.447 58.663,3.967 58.066,3.56L56.939,5.212C57.404,5.529 57.832,5.903 58.209,6.323L59.696,4.986Z" style="fill-rule:nonzero;"/>
    </g>
    <g transform="matrix(1,0,0,1,0,-0.029)">
        <path d="M52.115,4.055L51.866,2.071C51.146,2.161 50.438,2.34 49.762,2.6L50.483,4.466C51.007,4.264 51.556,4.125 52.115,4.055Z" style="fill-rule:nonzero;"/>
    </g>
    <g transform="matrix(1,0,0,1,0,-0.029)">
        <path d="M56.14,2.562C55.46,2.31 54.75,2.14 54.03,2.058L53.803,4.045C54.363,4.108 54.914,4.24 55.442,4.437L56.14,2.562Z" style="fill-rule:nonzero;"/>
    </g>
</svg>
