<?xml version="1.0" encoding="UTF-8" standalone="no"?><!DOCTYPE svg PUBLIC "-//W3C//DTD SVG 1.1//EN" "http://www.w3.org/Graphics/SVG/1.1/DTD/svg11.dtd"><svg width="100%" height="100%" viewBox="0 0 100 100" version="1.1" xmlns="http://www.w3.org/2000/svg" xmlns:xlink="http://www.w3.org/1999/xlink" xml:space="preserve" xmlns:serif="http://www.serif.com/" style="fill-rule:evenodd;clip-rule:evenodd;stroke-linejoin:round;stroke-miterlimit:2;"><g><path d="M93.6,18.25l-49,-0c-2.2,-0 -3.9,1.8 -3.9,3.9c-0,2.1 1.8,3.9 3.9,3.9l48.9,-0c2.2,-0 3.9,-1.8 3.9,-3.9c0,-2.1 -1.7,-3.9 -3.8,-3.9Z" style="fill-rule:nonzero;"/><path d="M81.4,36.85l-36.8,-0c-2.2,-0 -3.9,1.8 -3.9,3.9c0,2.1 1.8,3.9 3.9,3.9l36.8,-0c2.2,-0 3.9,-1.8 3.9,-3.9c0,-2.1 -1.8,-3.9 -3.9,-3.9Z" style="fill-rule:nonzero;"/><path d="M69.2,55.35l-24.6,-0c-2.2,-0 -3.9,1.8 -3.9,3.9c0,2.1 1.8,3.9 3.9,3.9l24.6,-0c2.2,-0 3.9,-1.8 3.9,-3.9c0,-2.1 -1.7,-3.9 -3.9,-3.9Z" style="fill-rule:nonzero;"/><path d="M57,73.95l-12.4,0c-2.2,0 -3.9,1.8 -3.9,3.9c0,2.1 1.8,3.9 3.9,3.9l12.4,0c2.2,0 3.9,-1.8 3.9,-3.9c0,-2.1 -1.7,-3.9 -3.9,-3.9Z" style="fill-rule:nonzero;"/><path d="M20.7,19.45c-1.5,-1.5 -4,-1.5 -5.6,-0l-11.4,11.4c-1.5,1.5 -1.5,4 0,5.6c1.5,1.5 4,1.5 5.6,-0l4.7,-4.7l0,46.1c0,2.2 1.8,3.9 3.9,3.9c2.1,-0 3.9,-1.8 3.9,-3.9l0,-46.1l4.7,4.7c0.8,0.8 1.8,1.2 2.8,1.2c1,-0 2,-0.4 2.8,-1.2c1.5,-1.5 1.5,-4 0,-5.6l-11.4,-11.4Z" style="fill-rule:nonzero;"/></g></svg>