<?xml version="1.0" encoding="UTF-8" standalone="no"?>
<!DOCTYPE svg PUBLIC "-//W3C//DTD SVG 1.1//EN" "http://www.w3.org/Graphics/SVG/1.1/DTD/svg11.dtd">
<svg width="100%" height="100%" viewBox="0 0 100 100" version="1.1" xmlns="http://www.w3.org/2000/svg" xmlns:xlink="http://www.w3.org/1999/xlink" xml:space="preserve" xmlns:serif="http://www.serif.com/" style="fill-rule:evenodd;clip-rule:evenodd;stroke-linejoin:round;stroke-miterlimit:2;">
    <g transform="matrix(0.102786,0,0,0.102786,-2.62235,-2.64479)">
        <g>
            <g>
                <path d="M455.3,534.3C428.6,507.4 401.8,480.5 375.1,453.5C332.7,410.9 290.4,368.2 248,325.6C238.2,315.7 228.4,305.9 218.6,296L218.6,352.6C245.4,326 272.2,299.4 298.9,272.8C341.3,230.7 383.7,188.6 426,146.5C435.7,136.8 445.5,127.1 455.2,117.5C470.1,102.7 471.1,75.5 455.2,60.9C439.2,46.2 414.5,45.1 398.6,60.9C371.8,87.5 345,114.1 318.3,140.7C276,182.8 233.7,224.9 191.3,267C181.6,276.7 171.8,286.4 162.1,296C146.7,311.3 146.9,337.3 162.1,352.6C188.8,379.5 215.6,406.4 242.3,433.4C284.7,476 327,518.7 369.4,561.3C379.2,571.2 389,581 398.8,590.9C413.6,605.8 440.8,606.8 455.4,590.9C470,574.8 471.1,550.1 455.3,534.3Z" style="fill-rule:nonzero;"/>
            </g>
        </g>
        <g>
            <g>
                <path d="M191.1,364.3C205.5,364.3 219.9,364.3 234.4,364.4C268.6,364.4 302.7,364.5 336.9,364.5C377.3,364.6 417.7,364.6 458.1,364.7C490.6,364.7 523.1,364.8 555.6,364.8C573.7,364.8 592,364.3 610.1,365.5C617,365.9 623.9,366.6 630.8,367.5C627.3,367 623.7,366.5 620.2,366.1C646.6,369.7 672.5,376.7 697.1,387C693.9,385.7 690.7,384.3 687.5,383C712,393.3 735,406.8 756,422.9C753.3,420.8 750.6,418.7 747.9,416.6C768.8,432.8 787.5,451.5 803.7,472.4C801.6,469.7 799.5,467 797.4,464.3C813.6,485.4 827,508.4 837.3,532.8C836,529.6 834.6,526.4 833.3,523.2C843.6,547.8 850.6,573.6 854.2,600.1C853.7,596.6 853.2,593 852.8,589.5C856.3,616.3 856.3,643.4 852.8,670.2C853.3,666.7 853.8,663.1 854.2,659.6C850.6,686 843.6,711.9 833.3,736.5C834.6,733.3 836,730.1 837.3,726.9C827,751.4 813.5,774.4 797.4,795.4C799.5,792.7 801.6,790 803.7,787.3C787.5,808.2 768.8,826.9 747.9,843.1C750.6,841 753.3,838.9 756,836.8C734.9,853 711.9,866.4 687.5,876.7C690.7,875.4 693.9,874 697.1,872.7C672.5,883 646.7,890 620.2,893.6C623.7,893.1 627.3,892.6 630.8,892.2C606.7,895.4 582.4,894.9 558.2,894.9L189.7,894.9C169.6,894.9 149.6,894.6 129.5,894.9L128.6,894.9C107.7,894.9 87.6,913.3 88.6,934.9C89.6,956.6 106.2,974.9 128.6,974.9L590.4,974.9C640.3,974.8 688.5,963.5 733.9,943.2C821.9,904 889.8,825 919.3,733.8C949.7,640.1 936.3,533.6 884.5,450C833.9,368.3 748.7,307.5 653.6,290.8C610.1,283.2 566.1,284.8 522.1,284.7C460.4,284.6 398.6,284.5 336.9,284.5C290.7,284.4 244.6,284.4 198.4,284.3L191.1,284.3C170.2,284.3 150.1,302.7 151.1,324.3C152.1,346 168.7,364.3 191.1,364.3Z" style="fill-rule:nonzero;"/>
            </g>
        </g>
    </g>
</svg>
