<?xml version="1.0" encoding="UTF-8" standalone="no"?>
<!DOCTYPE svg PUBLIC "-//W3C//DTD SVG 1.1//EN" "http://www.w3.org/Graphics/SVG/1.1/DTD/svg11.dtd">
<svg width="100%" height="100%" viewBox="0 0 100 100" version="1.1" xmlns="http://www.w3.org/2000/svg" xmlns:xlink="http://www.w3.org/1999/xlink" xml:space="preserve" xmlns:serif="http://www.serif.com/" style="fill-rule:evenodd;clip-rule:evenodd;stroke-linejoin:round;stroke-miterlimit:2;">
    <g transform="matrix(1,0,0,1,-0.0719439,-1.05524)">
        <path d="M15.761,4.616C10.612,4.616 6.474,8.758 6.474,13.913C6.474,17.994 9.073,21.431 12.708,22.689C12.714,22.691 12.719,22.694 12.725,22.696C12.92,22.763 13.118,22.823 13.318,22.877C13.41,22.902 13.503,22.925 13.597,22.947C13.755,22.985 13.913,23.02 14.074,23.05C14.22,23.077 14.367,23.097 14.515,23.117C14.642,23.134 14.768,23.155 14.897,23.167C15.181,23.193 15.469,23.209 15.761,23.209C16.052,23.209 16.34,23.193 16.624,23.167C16.753,23.155 16.879,23.134 17.006,23.117C17.154,23.097 17.301,23.077 17.447,23.05C17.608,23.02 17.766,22.985 17.924,22.947C18.018,22.925 18.111,22.902 18.203,22.877C18.405,22.823 18.603,22.762 18.799,22.694L18.801,22.694C22.444,21.44 25.048,17.999 25.048,13.913C25.048,11.446 24.07,9.082 22.328,7.339C20.586,5.595 18.224,4.617 15.761,4.617L15.761,4.616ZM84.382,4.616C79.555,4.616 75.616,8.256 75.143,12.959C75.111,13.272 75.096,13.59 75.096,13.913C75.096,17.994 77.694,21.431 81.33,22.689C81.336,22.691 81.341,22.694 81.346,22.696C81.541,22.763 81.739,22.823 81.94,22.877C82.032,22.902 82.125,22.925 82.218,22.947C82.376,22.985 82.534,23.02 82.696,23.05C82.841,23.077 82.988,23.097 83.136,23.117C83.264,23.134 83.39,23.155 83.519,23.167C83.803,23.193 84.09,23.209 84.382,23.209C84.673,23.209 84.961,23.193 85.245,23.167C85.374,23.155 85.5,23.134 85.627,23.117C85.775,23.097 85.923,23.077 86.068,23.05C86.229,23.02 86.388,22.985 86.546,22.947C86.639,22.925 86.732,22.902 86.824,22.877C87.026,22.823 87.225,22.762 87.421,22.694L87.423,22.694C91.065,21.44 93.67,17.999 93.67,13.913C93.67,11.446 92.692,9.082 90.949,7.339C89.207,5.595 86.845,4.617 84.382,4.617L84.382,4.616ZM48.386,10.257C41.365,10.379 34.429,12.316 28.305,15.926C28.217,16.473 28.104,17.011 27.948,17.533C28.986,17.966 29.942,18.594 30.752,19.404C31.378,20.03 31.898,20.742 32.303,21.511C42.943,15.473 56.384,15.483 67.275,22.413C67.531,22.576 67.778,22.748 68.029,22.917C68.571,20.568 70.066,18.578 72.082,17.371C71.711,17.117 71.342,16.862 70.961,16.62C64.42,12.458 57.088,10.382 49.79,10.257C49.322,10.249 48.854,10.248 48.386,10.257ZM74.387,21.729C74.383,21.73 74.38,21.732 74.377,21.734C74.374,21.735 74.372,21.736 74.37,21.737C74.157,21.832 73.954,21.942 73.758,22.062C73.699,22.099 73.643,22.14 73.585,22.178C73.449,22.269 73.318,22.365 73.191,22.468C73.128,22.52 73.067,22.573 73.005,22.627C72.89,22.73 72.779,22.837 72.674,22.949C72.618,23.008 72.562,23.067 72.509,23.128C72.403,23.252 72.305,23.384 72.211,23.517C72.17,23.576 72.124,23.63 72.085,23.69C71.963,23.878 71.853,24.074 71.755,24.278C71.722,24.346 71.698,24.418 71.668,24.488C71.605,24.634 71.546,24.782 71.497,24.935C71.467,25.029 71.443,25.125 71.418,25.22C71.397,25.302 71.369,25.38 71.351,25.463C71.354,25.466 71.358,25.469 71.361,25.472C71.285,25.833 71.232,26.202 71.232,26.587L71.232,31.895L97.533,31.897L97.533,26.587C97.533,25.178 96.974,23.828 95.978,22.832C95.513,22.368 94.97,22.003 94.382,21.741C92.052,24.718 88.438,26.642 84.382,26.642C83.386,26.642 82.417,26.526 81.487,26.307C81.484,26.302 81.481,26.297 81.477,26.292C81.217,26.231 80.964,26.153 80.711,26.076C80.589,26.038 80.464,26.006 80.344,25.965C80.093,25.88 79.847,25.783 79.603,25.683C79.471,25.629 79.34,25.573 79.211,25.514C78.962,25.402 78.715,25.288 78.475,25.16C78.393,25.117 78.316,25.068 78.235,25.023C77.75,24.752 77.284,24.449 76.841,24.118C76.765,24.061 76.686,24.009 76.611,23.95C76.39,23.778 76.178,23.594 75.969,23.407C75.876,23.324 75.783,23.24 75.692,23.154C75.497,22.969 75.304,22.781 75.121,22.584C75.039,22.496 74.962,22.404 74.883,22.314C74.714,22.123 74.544,21.931 74.387,21.729L74.387,21.729ZM5.755,21.732C3.896,22.554 2.611,24.407 2.611,26.586L2.611,31.895L28.91,31.897L28.91,26.586C28.91,25.741 28.706,24.918 28.33,24.179C28.329,24.177 28.327,24.175 28.325,24.173C28.208,23.944 28.075,23.726 27.926,23.515C27.902,23.481 27.877,23.448 27.852,23.415C27.7,23.211 27.538,23.014 27.356,22.832C27.125,22.6 26.874,22.393 26.607,22.211L26.605,22.21C26.472,22.119 26.335,22.036 26.195,21.958L26.193,21.956C26.052,21.878 25.907,21.806 25.76,21.74C25.494,22.08 25.207,22.404 24.909,22.716C24.83,22.798 24.747,22.875 24.666,22.955C24.44,23.178 24.206,23.392 23.965,23.597C23.864,23.684 23.763,23.771 23.658,23.854C23.394,24.066 23.118,24.265 22.837,24.456C22.706,24.544 22.574,24.632 22.44,24.715C22.163,24.889 21.879,25.051 21.588,25.203C21.4,25.301 21.206,25.389 21.012,25.478C20.84,25.557 20.666,25.633 20.49,25.704C20.26,25.797 20.028,25.886 19.791,25.966C19.663,26.009 19.531,26.045 19.401,26.085C19.152,26.16 18.903,26.236 18.648,26.296L18.658,26.305C17.727,26.524 16.757,26.642 15.76,26.642C11.7,26.642 8.084,24.713 5.755,21.732L5.755,21.732ZM79.144,35.328C83.969,44.56 84.447,55.827 79.621,65.819C75.749,73.838 69.106,79.681 61.348,82.695C61.199,83.268 61.022,83.832 60.798,84.371C61.631,84.787 62.402,85.331 63.073,86.002C63.844,86.773 64.449,87.678 64.881,88.657C73.765,84.917 81.337,78.053 85.803,68.804C91.046,57.947 91.043,45.787 86.682,35.329L79.144,35.328ZM12.537,43.033L7.462,79.212L17.586,77.056C19.12,78.915 20.822,80.645 22.682,82.219C25.783,84.845 29.324,87.028 33.216,88.664C34.041,86.807 35.496,85.29 37.303,84.378C37.077,83.835 36.899,83.269 36.75,82.692C33.159,81.298 29.926,79.356 27.118,76.979C26.52,76.473 25.946,75.941 25.387,75.397L31.904,74.009L29.304,69.852L12.537,43.033ZM16.716,62.67L20.883,69.336L15.623,70.454L16.716,62.67ZM49.048,70.214C43.899,70.214 39.762,74.355 39.762,79.51C39.762,83.301 42.004,86.538 45.236,87.988C45.259,87.999 45.281,88.01 45.303,88.02C45.465,88.091 45.63,88.153 45.796,88.215C45.892,88.251 45.988,88.287 46.086,88.32C46.237,88.371 46.39,88.415 46.544,88.458C46.669,88.493 46.795,88.525 46.922,88.555C47.061,88.587 47.2,88.619 47.342,88.645C47.389,88.654 47.436,88.666 47.484,88.674C47.595,88.693 47.709,88.703 47.821,88.717C47.941,88.733 48.06,88.753 48.181,88.764C48.206,88.767 48.229,88.77 48.253,88.773L48.255,88.773C48.516,88.795 48.781,88.807 49.048,88.807C49.315,88.807 49.58,88.795 49.841,88.773L49.843,88.773C49.867,88.771 49.89,88.767 49.915,88.764C50.036,88.753 50.155,88.733 50.275,88.717C50.387,88.702 50.501,88.693 50.612,88.674C50.66,88.666 50.706,88.654 50.753,88.645C50.897,88.619 51.039,88.586 51.18,88.553C51.302,88.524 51.424,88.494 51.544,88.461C51.702,88.417 51.859,88.37 52.013,88.319C52.105,88.287 52.196,88.253 52.287,88.22C52.459,88.156 52.632,88.091 52.799,88.017L52.801,88.017C56.067,86.58 58.336,83.325 58.336,79.51C58.336,77.044 57.358,74.68 55.616,72.936C53.873,71.193 51.512,70.214 49.048,70.214L49.048,70.214ZM39.043,87.331L39.041,87.333C38.774,87.451 38.523,87.595 38.282,87.754C38.222,87.793 38.167,87.838 38.109,87.879C37.929,88.008 37.759,88.147 37.598,88.297C37.543,88.348 37.49,88.399 37.437,88.453C37.271,88.62 37.117,88.798 36.974,88.987C36.944,89.027 36.912,89.064 36.884,89.105C36.267,89.971 35.898,91.029 35.898,92.184L35.898,97.494L62.199,97.494L62.199,92.184C62.199,91.367 62.006,90.573 61.654,89.854C61.532,89.603 61.392,89.363 61.23,89.133C61.213,89.108 61.193,89.084 61.175,89.059C61.02,88.847 60.852,88.643 60.665,88.454C60.658,88.447 60.653,88.437 60.645,88.429L60.644,88.429C60.538,88.324 60.428,88.224 60.315,88.129C60.303,88.119 60.293,88.109 60.281,88.099C60.156,87.996 60.028,87.898 59.894,87.807L59.892,87.807C59.626,87.626 59.344,87.469 59.051,87.338L59.049,87.34L59.048,87.338C58.784,87.674 58.501,87.994 58.206,88.302C58.139,88.371 58.071,88.44 58.003,88.508C57.729,88.782 57.443,89.045 57.145,89.294C57.113,89.32 57.083,89.348 57.051,89.374C56.728,89.638 56.388,89.884 56.04,90.115C55.947,90.178 55.851,90.237 55.755,90.296C55.475,90.472 55.188,90.637 54.894,90.791C54.801,90.839 54.711,90.892 54.617,90.938C54.263,91.113 53.899,91.268 53.528,91.409C53.393,91.461 53.255,91.507 53.117,91.553C51.838,91.991 50.472,92.239 49.047,92.239C47.62,92.239 46.252,91.989 44.971,91.55C44.838,91.505 44.705,91.461 44.574,91.411C44.202,91.27 43.836,91.116 43.482,90.942C43.38,90.891 43.282,90.834 43.181,90.781C42.892,90.629 42.611,90.468 42.336,90.295C42.239,90.234 42.143,90.173 42.048,90.11C41.703,89.881 41.367,89.639 41.047,89.378C41.003,89.342 40.963,89.303 40.92,89.267C40.632,89.026 40.357,88.77 40.092,88.505C40.022,88.435 39.952,88.365 39.884,88.293C39.589,87.985 39.305,87.667 39.042,87.331L39.043,87.331Z"/>
    </g>
    <g transform="matrix(1,0,0,1,-0.0719439,-1.05524)">
        <path d="M35.528,33.931C32.143,33.931 29.355,36.719 29.355,40.105L29.355,56.796C29.355,60.182 32.143,62.97 35.528,62.97L36.706,62.97L40.56,67.36C40.939,67.793 41.487,68.041 42.063,68.041C42.603,68.041 43.121,67.822 43.497,67.435L47.843,62.97L64.724,62.97C68.109,62.97 70.898,60.182 70.898,56.796L70.898,40.105C70.898,38.468 70.246,36.896 69.089,35.739C67.932,34.582 66.36,33.931 64.724,33.931L37.612,33.931L35.528,33.931ZM35.528,37.931L64.724,37.931C65.301,37.931 65.853,38.159 66.261,38.567C66.669,38.976 66.898,39.527 66.898,40.105L66.898,56.796C66.898,58.02 65.948,58.97 64.724,58.97L46.997,58.97C46.457,58.97 45.94,59.188 45.564,59.575L42.138,63.095L39.114,59.649C38.735,59.218 38.187,58.97 37.612,58.97L35.528,58.97C34.304,58.97 33.355,58.02 33.355,56.796L33.355,40.105C33.355,38.881 34.304,37.931 35.528,37.931Z"/>
    </g>
</svg>
