<?xml version="1.0" encoding="UTF-8" standalone="no"?>
<!DOCTYPE svg PUBLIC "-//W3C//DTD SVG 1.1//EN" "http://www.w3.org/Graphics/SVG/1.1/DTD/svg11.dtd">
<svg width="100%" height="100%" viewBox="0 0 68 68" version="1.1" xmlns="http://www.w3.org/2000/svg" xmlns:xlink="http://www.w3.org/1999/xlink" xml:space="preserve" xmlns:serif="http://www.serif.com/" style="fill-rule:evenodd;clip-rule:evenodd;stroke-linejoin:round;stroke-miterlimit:2;">
    <g transform="matrix(1,0,0,1,0,-0.05)">
        <path d="M66,12.5L15.4,12.5L15.4,11.6C15.4,7.6 12.2,4.4 8.2,4.4C4.2,4.4 1,7.6 1,11.6L1,56.5C1,60.5 4.2,63.7 8.2,63.7L66,63.7C66.6,63.7 67,63.3 67,62.7L67,13.5C67,12.9 66.6,12.5 66,12.5ZM3,11.6C3,8.7 5.3,6.4 8.2,6.4C11.1,6.4 13.4,8.7 13.4,11.6L13.4,51.5C10.6,48.6 5.9,48.5 3,51.5L3,11.6ZM65,61.6L8.3,61.6C5.4,61.6 3.1,59.3 3.1,56.4C3.1,53.5 5.4,51.2 8.3,51.2C11.1,51.2 13.4,53.4 13.5,56.2C13.5,56.7 13.9,57.1 14.5,57.1C15,57.1 15.5,56.7 15.5,56.2L15.5,14.5L65,14.5L65,61.6Z" style="fill-rule:nonzero;"/>
        <path d="M23.6,41.5L28,42.4C28.1,42.8 28.3,43.2 28.5,43.6L26,47.3C25.7,47.7 25.8,48.2 26.1,48.6L29.7,52.2C30,52.5 30.6,52.6 31,52.3L34.7,49.8C35.1,50 35.5,50.2 35.9,50.3L36.8,54.7C36.9,55.2 37.3,55.5 37.8,55.5L42.8,55.5C43.3,55.5 43.7,55.2 43.8,54.7L44.7,50.3C45.1,50.2 45.5,50 45.9,49.8L49.6,52.3C50,52.6 50.5,52.5 50.9,52.2L54.5,48.6C54.8,48.3 54.9,47.7 54.6,47.3L52,43.6C52.2,43.2 52.4,42.8 52.5,42.4L56.9,41.5C57.4,41.4 57.7,41 57.7,40.5L57.7,35.4C57.7,34.9 57.4,34.5 56.9,34.4L52.5,33.5C52.4,33.1 52.2,32.7 52,32.3L54.5,28.6C54.8,28.2 54.7,27.7 54.4,27.3L50.8,23.7C50.5,23.4 49.9,23.3 49.5,23.6L45.8,26.1C45.4,25.9 45,25.7 44.6,25.6L43.7,21.2C43.6,20.7 43.2,20.4 42.7,20.4L37.7,20.4C37.2,20.4 36.8,20.7 36.7,21.2L35.8,25.6C35.4,25.7 35,25.9 34.6,26.1L30.9,23.6C30.5,23.3 30,23.4 29.6,23.7L26,27.3C25.7,27.6 25.6,28.2 25.9,28.6L28.4,32.3C28.2,32.7 28,33.1 27.9,33.5L23.5,34.4C23,34.5 22.7,34.9 22.7,35.4L22.7,40.5C22.8,41 23.1,41.5 23.6,41.5ZM24.8,36.3L28.9,35.5C29.3,35.4 29.6,35.2 29.7,34.8C29.9,34.1 30.2,33.4 30.5,32.8C30.7,32.5 30.7,32.1 30.5,31.8L28.2,28.3L30.6,25.9L34.1,28.2C34.4,28.4 34.8,28.4 35.1,28.3C35.8,28 36.4,27.7 37.1,27.5C37.5,27.4 37.7,27.1 37.8,26.7L38.6,22.6L42,22.6L42.8,26.7C42.9,27.1 43.1,27.4 43.5,27.5C44.1,27.7 44.8,28 45.5,28.3C45.8,28.5 46.2,28.4 46.5,28.2L50,25.9L52.4,28.3L50,31.8C49.8,32.1 49.8,32.5 50,32.8C50.3,33.4 50.6,34.1 50.8,34.8C50.9,35.2 51.2,35.4 51.6,35.5L55.7,36.3L55.7,39.7L51.6,40.5C51.2,40.6 50.9,40.8 50.8,41.2C50.6,41.9 50.3,42.5 50,43.2C49.8,43.5 49.8,43.9 50,44.2L52.3,47.7L49.9,50.1L46.4,47.8C46.1,47.6 45.7,47.6 45.4,47.8C44.8,48.1 44.1,48.4 43.4,48.6C43,48.7 42.8,49 42.7,49.4L41.9,53.5L38.5,53.5L37.7,49.4C37.6,49 37.4,48.8 37,48.6C36.3,48.4 35.6,48.1 35,47.8C34.7,47.6 34.3,47.6 34,47.8L30.5,50.1L28.1,47.7L30.4,44.2C30.6,43.9 30.6,43.5 30.4,43.2C30.1,42.6 29.8,41.9 29.6,41.2C29.5,40.8 29.2,40.6 28.8,40.5L24.7,39.7L24.7,36.3L24.8,36.3Z" style="fill-rule:nonzero;"/>
        <path d="M40.2,45.5C44.3,45.5 47.7,42.1 47.7,38C47.7,33.9 44.3,30.5 40.2,30.5C36.1,30.5 32.7,33.9 32.7,38C32.7,42.1 36,45.5 40.2,45.5ZM40.2,32.5C43.2,32.5 45.7,35 45.7,38C45.7,41 43.2,43.5 40.2,43.5C37.2,43.5 34.7,41 34.7,38C34.7,35 37.2,32.5 40.2,32.5Z" style="fill-rule:nonzero;"/>
    </g>
</svg>
